<svg width="110" height="110" xmlns="http://www.w3.org/2000/svg">
 <g id="Layer_1">
  <title>Layer 1</title>
  <g id="svg_309">
   <rect id="svg_865" height="2" width="94" y="0" x="8" stroke-width="0" stroke="#000" fill="#ffffff"/>
   <rect id="svg_867" height="94" width="2" y="7.87326" x="0" stroke-width="0" stroke="#000" fill="#ffffff"/>
   <rect id="svg_868" height="2" width="94" y="108" x="8" stroke-width="0" stroke="#000" fill="#ffffff"/>
   <rect id="svg_869" height="94" width="2" y="8" x="108" stroke-width="0" stroke="#000" fill="#ffffff"/>
   <rect id="svg_870" height="2" width="3" y="1" x="6" stroke-width="0" stroke="#000" fill="#ffffff"/>
   <rect id="svg_872" height="3" width="2" y="6" x="1" stroke-width="0" stroke="#000" fill="#ffffff"/>
   <rect id="svg_874" height="2" width="2" y="5" x="2" stroke-width="0" stroke="#000" fill="#ffffff"/>
   <rect id="svg_875" height="2" width="2" y="4" x="3" stroke-width="0" stroke="#000" fill="#ffffff"/>
   <rect id="svg_876" height="2" width="2" y="3" x="4" stroke-width="0" stroke="#000" fill="#ffffff"/>
   <rect id="svg_877" height="2" width="2" y="2" x="5" stroke-width="0" stroke="#000" fill="#ffffff"/>
   <rect id="svg_878" height="2" width="3" y="1" x="101" stroke-width="0" stroke="#000" fill="#ffffff"/>
   <rect id="svg_879" height="2" width="2" y="2" x="103" stroke-width="0" stroke="#000" fill="#ffffff"/>
   <rect id="svg_880" height="2" width="2" y="3" x="104" stroke-width="0" stroke="#000" fill="#ffffff"/>
   <rect id="svg_881" height="2" width="2" y="4" x="105" stroke-width="0" stroke="#000" fill="#ffffff"/>
   <rect id="svg_882" height="2" width="2" y="5" x="106" stroke-width="0" stroke="#000" fill="#ffffff"/>
   <rect id="svg_883" height="3" width="2" y="6" x="107" stroke-width="0" stroke="#000" fill="#ffffff"/>
   <rect id="svg_884" height="3" width="2" y="101" x="1" stroke-width="0" stroke="#000" fill="#ffffff"/>
   <rect id="svg_885" height="2" width="2" y="103" x="2" stroke-width="0" stroke="#000" fill="#ffffff"/>
   <rect id="svg_886" height="2" width="2" y="104" x="3" stroke-width="0" stroke="#000" fill="#ffffff"/>
   <rect id="svg_887" height="2" width="2" y="105" x="4" stroke-width="0" stroke="#000" fill="#ffffff"/>
   <rect id="svg_888" height="2" width="2" y="106" x="5" stroke-width="0" stroke="#000" fill="#ffffff"/>
   <rect id="svg_889" height="2" width="3" y="107" x="6" stroke-width="0" stroke="#000" fill="#ffffff"/>
   <rect id="svg_890" height="2" width="3" y="107" x="101" stroke-width="0" stroke="#000" fill="#ffffff"/>
   <rect id="svg_891" height="2" width="2" y="106" x="103" stroke-width="0" stroke="#000" fill="#ffffff"/>
   <rect id="svg_892" height="2" width="2" y="105" x="104" stroke-width="0" stroke="#000" fill="#ffffff"/>
   <rect id="svg_893" height="2" width="2" y="104" x="105" stroke-width="0" stroke="#000" fill="#ffffff"/>
   <rect id="svg_894" height="2" width="2" y="103" x="106" stroke-width="0" stroke="#000" fill="#ffffff"/>
   <rect id="svg_895" height="3" width="2" y="101" x="107" stroke-width="0" stroke="#000" fill="#ffffff"/>
  </g>
  <rect id="svg_871" height="0.07911" width="0" y="-13.86076" x="67.78481" stroke-width="0" stroke="#000" fill="#ffffff"/>
  <g id="svg_993">
   <g id="svg_940">
    <rect fill="#07ff07" stroke="#000" stroke-width="0" x="19" y="26" width="10" height="5" id="svg_898"/>
    <g id="svg_901">
     <rect fill="#fbfe00" stroke="#000" stroke-width="0" x="23" y="18.0382" width="2" height="2" id="svg_899"/>
     <rect fill="#fbfe00" stroke="#000" stroke-width="0" x="23" y="17" width="1" height="2" id="svg_900"/>
    </g>
    <rect fill="#07ff07" stroke="#000" stroke-width="0" x="22" y="19" width="4" height="2" id="svg_902"/>
    <rect fill="#07ff07" stroke="#000" stroke-width="0" x="20" y="20" width="8" height="3" id="svg_903"/>
    <rect fill="#07ff07" stroke="#000" stroke-width="0" x="19" y="22" width="10" height="3" id="svg_904"/>
    <rect fill="#07ff07" stroke="#000" stroke-width="0" x="18" y="24" width="12" height="2" id="svg_905"/>
    <g id="svg_908">
     <rect id="svg_906" height="2" width="2" y="24" x="19" stroke-width="0" stroke="#000" fill="#fbfe00"/>
     <rect fill="#fbfe00" stroke="#000" stroke-width="0" x="20" y="23" width="1" height="3" id="svg_907"/>
    </g>
    <rect fill="#000000" stroke="#000" stroke-width="0" x="19" y="25" width="1" height="1" id="svg_909"/>
    <g id="svg_912">
     <rect fill="#ffffff" stroke="#000" stroke-width="0" x="20" y="28.9704" width="7" height="3" id="svg_910"/>
     <rect fill="#ffffff" stroke="#000" stroke-width="0" x="21" y="27.9704" width="5" height="2" id="svg_911"/>
    </g>
    <rect fill="#000000" stroke="#000" stroke-width="0" x="20" y="26" width="10" height="1" id="svg_913"/>
    <g id="svg_922">
     <g id="svg_917">
      <rect fill="#ffffff" stroke="#000" stroke-width="0" x="22" y="21" width="2" height="5" id="svg_914"/>
      <rect fill="#ffffff" stroke="#000" stroke-width="0" x="21" y="22" width="2" height="3" id="svg_915"/>
      <rect fill="#000000" stroke="#000" stroke-width="0" x="23" y="21" width="1" height="3" id="svg_916"/>
     </g>
     <g id="svg_921">
      <rect transform="rotate(-180 26 23.4618)" fill="#ffffff" stroke="#000" stroke-width="0" x="25" y="20.96181" width="2" height="5" id="svg_918"/>
      <rect transform="rotate(-180 27 23.4618)" fill="#ffffff" stroke="#000" stroke-width="0" x="26" y="21.96181" width="2" height="3" id="svg_919"/>
      <rect fill="#000000" stroke="#000" stroke-width="0" x="25" y="20.9704" width="1" height="3" id="svg_920"/>
     </g>
    </g>
    <g id="svg_925">
     <rect id="svg_923" height="2" width="2" y="24" x="28" stroke-width="0" stroke="#000" fill="#fbfe00"/>
     <rect id="svg_924" height="2" width="1" y="23" x="28" stroke-width="0" stroke="#000" fill="#fbfe00"/>
    </g>
    <g id="svg_929">
     <rect fill="#fe7677" stroke="#000" stroke-width="0" x="17" y="28" width="3" height="1" id="svg_926"/>
     <rect id="svg_927" height="2" width="1" y="27" x="17" stroke-width="0" stroke="#000" fill="#fe7677"/>
     <rect id="svg_928" height="2" width="1" y="28" x="18" stroke-width="0" stroke="#000" fill="#fe7677"/>
    </g>
    <rect fill="#fe7677" stroke="#000" stroke-width="0" x="28" y="28" width="4" height="1" id="svg_930"/>
    <rect id="svg_931" height="3" width="2" y="27" x="29" stroke-width="0" stroke="#000" fill="#fe7677"/>
    <g id="svg_939">
     <g id="svg_934">
      <rect fill="#fe7677" stroke="#000" stroke-width="0" x="26" y="30" width="2" height="2" id="svg_932"/>
      <rect fill="#fe7677" stroke="#000" stroke-width="0" x="25" y="31" width="4" height="1" id="svg_933"/>
     </g>
     <g id="svg_938">
      <rect fill="#fe7677" stroke="#000" stroke-width="0" x="19" y="30" width="2" height="2" id="svg_935"/>
      <rect fill="#fe7677" stroke="#000" stroke-width="0" x="18" y="31" width="4" height="1" id="svg_936"/>
      <rect fill="#fe7677" stroke="#000" stroke-width="0" x="19" y="31" width="3" height="2" id="svg_937"/>
     </g>
    </g>
   </g>
   <g id="svg_955">
    <g id="svg_943">
     <rect id="svg_941" height="2" width="1" y="30" x="32" stroke-width="0" stroke="#000" fill="#ffffff"/>
     <rect id="svg_942" height="1" width="2" y="31" x="31" stroke-width="0" stroke="#000" fill="#ffffff"/>
    </g>
    <g id="svg_949">
     <rect id="svg_944" height="1" width="2" y="33" x="29" stroke-width="0" stroke="#000" fill="#ffffff"/>
     <rect id="svg_945" height="2" width="1" y="33" x="29" stroke-width="0" stroke="#000" fill="#ffffff"/>
     <rect id="svg_946" height="1" width="2" y="34" x="28" stroke-width="0" stroke="#000" fill="#ffffff"/>
     <rect id="svg_947" height="2" width="1" y="34" x="28" stroke-width="0" stroke="#000" fill="#ffffff"/>
     <rect id="svg_948" height="1" width="2" y="35" x="27" stroke-width="0" stroke="#000" fill="#ffffff"/>
    </g>
    <rect id="svg_950" height="2" width="3" y="12" x="19" stroke-width="0" stroke="#000" fill="#ffffff"/>
    <g id="svg_954">
     <rect id="svg_951" height="2" width="2" y="14" x="16" stroke-width="0" stroke="#000" fill="#ffffff"/>
     <rect id="svg_952" height="2" width="2" y="15" x="15" stroke-width="0" stroke="#000" fill="#ffffff"/>
     <rect id="svg_953" height="2" width="2" y="16" x="14" stroke-width="0" stroke="#000" fill="#ffffff"/>
    </g>
   </g>
   <g id="svg_992">
    <rect id="svg_956" height="1" width="2" y="36" x="30" stroke-width="0" stroke="#000" fill="#ffffff"/>
    <rect id="svg_957" height="1" width="1" y="35" x="32.03588" stroke-width="0" stroke="#000" fill="#ffffff"/>
    <rect id="svg_958" height="1" width="1" y="34" x="33" stroke-width="0" stroke="#000" fill="#ffffff"/>
    <rect id="svg_959" height="1" width="1" y="33" x="34" stroke-width="0" stroke="#000" fill="#ffffff"/>
    <rect id="svg_960" height="2" width="1" y="31" x="35" stroke-width="0" stroke="#000" fill="#ffffff"/>
    <rect id="svg_961" height="2" width="1" y="29" x="36" stroke-width="0" stroke="#000" fill="#ffffff"/>
    <rect id="svg_962" height="3" width="1" y="26" x="37" stroke-width="0" stroke="#000" fill="#ffffff"/>
    <rect id="svg_963" height="4" width="1" y="22" x="38" stroke-width="0" stroke="#000" fill="#ffffff"/>
    <rect id="svg_964" height="3" width="1" y="19" x="37" stroke-width="0" stroke="#000" fill="#ffffff"/>
    <rect id="svg_965" height="2" width="1" y="17" x="36" stroke-width="0" stroke="#000" fill="#ffffff"/>
    <rect id="svg_966" height="2" width="1" y="15" x="35" stroke-width="0" stroke="#000" fill="#ffffff"/>
    <rect id="svg_967" height="1" width="1" y="14" x="34" stroke-width="0" stroke="#000" fill="#ffffff"/>
    <rect id="svg_968" height="1" width="1" y="13" x="33" stroke-width="0" stroke="#000" fill="#ffffff"/>
    <rect id="svg_969" height="1" width="1" y="12" x="32" stroke-width="0" stroke="#000" fill="#ffffff"/>
    <rect id="svg_970" height="1" width="2" y="11" x="30" stroke-width="0" stroke="#000" fill="#ffffff"/>
    <rect id="svg_971" height="1" width="3" y="10" x="27" stroke-width="0" stroke="#000" fill="#ffffff"/>
    <rect y="9" id="svg_972" height="1" width="6" x="21" stroke-width="0" stroke="#000" fill="#ffffff"/>
    <rect id="svg_973" height="1" width="3" y="10" x="18" stroke-width="0" stroke="#000" fill="#ffffff"/>
    <rect id="svg_974" height="1" width="2" y="11" x="16" stroke-width="0" stroke="#000" fill="#ffffff"/>
    <rect id="svg_975" height="1" width="1" y="12" x="15" stroke-width="0" stroke="#000" fill="#ffffff"/>
    <rect id="svg_976" height="1" width="1" y="13" x="14" stroke-width="0" stroke="#000" fill="#ffffff"/>
    <rect id="svg_977" height="1" width="1" y="14" x="13" stroke-width="0" stroke="#000" fill="#ffffff"/>
    <rect id="svg_978" height="2" width="1" y="15" x="12" stroke-width="0" stroke="#000" fill="#ffffff"/>
    <rect id="svg_979" height="2" width="1" y="17" x="11" stroke-width="0" stroke="#000" fill="#ffffff"/>
    <rect id="svg_980" height="3" width="1" y="19" x="10" stroke-width="0" stroke="#000" fill="#ffffff"/>
    <rect id="svg_981" height="4" width="1" y="22" x="9" stroke-width="0" stroke="#000" fill="#ffffff"/>
    <rect id="svg_982" height="3" width="1" y="26" x="10" stroke-width="0" stroke="#000" fill="#ffffff"/>
    <rect id="svg_983" height="2" width="1" y="29" x="11" stroke-width="0" stroke="#000" fill="#ffffff"/>
    <rect id="svg_984" height="2" width="1" y="31" x="12" stroke-width="0" stroke="#000" fill="#ffffff"/>
    <rect id="svg_985" height="1" width="1" y="33" x="13" stroke-width="0" stroke="#000" fill="#ffffff"/>
    <rect id="svg_986" height="1" width="1" y="34" x="14" stroke-width="0" stroke="#000" fill="#ffffff"/>
    <rect id="svg_987" height="1" width="1" y="35" x="15" stroke-width="0" stroke="#000" fill="#ffffff"/>
    <rect id="svg_988" height="1" width="2" y="36" x="16" stroke-width="0" stroke="#000" fill="#ffffff"/>
    <rect id="svg_989" height="1" width="3" y="37" x="18" stroke-width="0" stroke="#000" fill="#ffffff"/>
    <rect id="svg_990" height="1" width="6" y="38" x="21" stroke-width="0" stroke="#000" fill="#ffffff"/>
    <rect id="svg_991" height="1" width="3" y="37" x="27" stroke-width="0" stroke="#000" fill="#ffffff"/>
   </g>
  </g>
  <g id="svg_1761">
   <g id="svg_1708">
    <rect fill="#07ff07" stroke="#000" stroke-width="0" x="81" y="88" width="10" height="5" id="svg_1666"/>
    <g id="svg_1669">
     <rect fill="#fbfe00" stroke="#000" stroke-width="0" x="85" y="80.0382" width="2" height="2" id="svg_1667"/>
     <rect fill="#fbfe00" stroke="#000" stroke-width="0" x="85" y="79" width="1" height="2" id="svg_1668"/>
    </g>
    <rect fill="#07ff07" stroke="#000" stroke-width="0" x="84" y="81" width="4" height="2" id="svg_1670"/>
    <rect fill="#07ff07" stroke="#000" stroke-width="0" x="82" y="82" width="8" height="3" id="svg_1671"/>
    <rect fill="#07ff07" stroke="#000" stroke-width="0" x="81" y="84" width="10" height="3" id="svg_1672"/>
    <rect fill="#07ff07" stroke="#000" stroke-width="0" x="80" y="86" width="12" height="2" id="svg_1673"/>
    <g id="svg_1676">
     <rect id="svg_1674" height="2" width="2" y="86" x="81" stroke-width="0" stroke="#000" fill="#fbfe00"/>
     <rect fill="#fbfe00" stroke="#000" stroke-width="0" x="82" y="85" width="1" height="3" id="svg_1675"/>
    </g>
    <rect fill="#000000" stroke="#000" stroke-width="0" x="81" y="87" width="1" height="1" id="svg_1677"/>
    <g id="svg_1680">
     <rect fill="#ffffff" stroke="#000" stroke-width="0" x="82" y="90.9704" width="7" height="3" id="svg_1678"/>
     <rect fill="#ffffff" stroke="#000" stroke-width="0" x="83" y="89.9704" width="5" height="2" id="svg_1679"/>
    </g>
    <rect fill="#000000" stroke="#000" stroke-width="0" x="82" y="88" width="10" height="1" id="svg_1681"/>
    <g id="svg_1690">
     <g id="svg_1685">
      <rect fill="#ffffff" stroke="#000" stroke-width="0" x="84" y="83" width="2" height="5" id="svg_1682"/>
      <rect fill="#ffffff" stroke="#000" stroke-width="0" x="83" y="84" width="2" height="3" id="svg_1683"/>
      <rect fill="#000000" stroke="#000" stroke-width="0" x="85" y="83" width="1" height="3" id="svg_1684"/>
     </g>
     <g id="svg_1689">
      <rect transform="rotate(-180 88 85.4618)" fill="#ffffff" stroke="#000" stroke-width="0" x="87" y="82.96181" width="2" height="5" id="svg_1686"/>
      <rect transform="rotate(-180 89 85.4618)" fill="#ffffff" stroke="#000" stroke-width="0" x="88" y="83.96181" width="2" height="3" id="svg_1687"/>
      <rect fill="#000000" stroke="#000" stroke-width="0" x="87" y="82.9704" width="1" height="3" id="svg_1688"/>
     </g>
    </g>
    <g id="svg_1693">
     <rect id="svg_1691" height="2" width="2" y="86" x="90" stroke-width="0" stroke="#000" fill="#fbfe00"/>
     <rect id="svg_1692" height="2" width="1" y="85" x="90" stroke-width="0" stroke="#000" fill="#fbfe00"/>
    </g>
    <g id="svg_1697">
     <rect fill="#fe7677" stroke="#000" stroke-width="0" x="79" y="90" width="3" height="1" id="svg_1694"/>
     <rect id="svg_1695" height="2" width="1" y="89" x="79" stroke-width="0" stroke="#000" fill="#fe7677"/>
     <rect id="svg_1696" height="2" width="1" y="90" x="80" stroke-width="0" stroke="#000" fill="#fe7677"/>
    </g>
    <rect fill="#fe7677" stroke="#000" stroke-width="0" x="90" y="90" width="4" height="1" id="svg_1698"/>
    <rect id="svg_1699" height="3" width="2" y="89" x="91" stroke-width="0" stroke="#000" fill="#fe7677"/>
    <g id="svg_1707">
     <g id="svg_1702">
      <rect fill="#fe7677" stroke="#000" stroke-width="0" x="88" y="92" width="2" height="2" id="svg_1700"/>
      <rect fill="#fe7677" stroke="#000" stroke-width="0" x="87" y="93" width="4" height="1" id="svg_1701"/>
     </g>
     <g id="svg_1706">
      <rect fill="#fe7677" stroke="#000" stroke-width="0" x="81" y="92" width="2" height="2" id="svg_1703"/>
      <rect fill="#fe7677" stroke="#000" stroke-width="0" x="80" y="93" width="4" height="1" id="svg_1704"/>
      <rect fill="#fe7677" stroke="#000" stroke-width="0" x="81" y="93" width="3" height="2" id="svg_1705"/>
     </g>
    </g>
   </g>
   <g id="svg_1723">
    <g id="svg_1711">
     <rect id="svg_1709" height="2" width="1" y="92" x="94" stroke-width="0" stroke="#000" fill="#ffffff"/>
     <rect id="svg_1710" height="1" width="2" y="93" x="93" stroke-width="0" stroke="#000" fill="#ffffff"/>
    </g>
    <g id="svg_1717">
     <rect id="svg_1712" height="1" width="2" y="95" x="91" stroke-width="0" stroke="#000" fill="#ffffff"/>
     <rect id="svg_1713" height="2" width="1" y="95" x="91" stroke-width="0" stroke="#000" fill="#ffffff"/>
     <rect id="svg_1714" height="1" width="2" y="96" x="90" stroke-width="0" stroke="#000" fill="#ffffff"/>
     <rect id="svg_1715" height="2" width="1" y="96" x="90" stroke-width="0" stroke="#000" fill="#ffffff"/>
     <rect id="svg_1716" height="1" width="2" y="97" x="89" stroke-width="0" stroke="#000" fill="#ffffff"/>
    </g>
    <rect id="svg_1718" height="2" width="3" y="74" x="81" stroke-width="0" stroke="#000" fill="#ffffff"/>
    <g id="svg_1722">
     <rect id="svg_1719" height="2" width="2" y="76" x="78" stroke-width="0" stroke="#000" fill="#ffffff"/>
     <rect id="svg_1720" height="2" width="2" y="77" x="77" stroke-width="0" stroke="#000" fill="#ffffff"/>
     <rect id="svg_1721" height="2" width="2" y="78" x="76" stroke-width="0" stroke="#000" fill="#ffffff"/>
    </g>
   </g>
   <g id="svg_1760">
    <rect id="svg_1724" height="1" width="2" y="98" x="92" stroke-width="0" stroke="#000" fill="#ffffff"/>
    <rect id="svg_1725" height="1" width="1" y="97" x="94.03588" stroke-width="0" stroke="#000" fill="#ffffff"/>
    <rect id="svg_1726" height="1" width="1" y="96" x="95" stroke-width="0" stroke="#000" fill="#ffffff"/>
    <rect id="svg_1727" height="1" width="1" y="95" x="96" stroke-width="0" stroke="#000" fill="#ffffff"/>
    <rect id="svg_1728" height="2" width="1" y="93" x="97" stroke-width="0" stroke="#000" fill="#ffffff"/>
    <rect id="svg_1729" height="2" width="1" y="91" x="98" stroke-width="0" stroke="#000" fill="#ffffff"/>
    <rect id="svg_1730" height="3" width="1" y="88" x="99" stroke-width="0" stroke="#000" fill="#ffffff"/>
    <rect id="svg_1731" height="4" width="1" y="84" x="100" stroke-width="0" stroke="#000" fill="#ffffff"/>
    <rect id="svg_1732" height="3" width="1" y="81" x="99" stroke-width="0" stroke="#000" fill="#ffffff"/>
    <rect id="svg_1733" height="2" width="1" y="79" x="98" stroke-width="0" stroke="#000" fill="#ffffff"/>
    <rect id="svg_1734" height="2" width="1" y="77" x="97" stroke-width="0" stroke="#000" fill="#ffffff"/>
    <rect id="svg_1735" height="1" width="1" y="76" x="96" stroke-width="0" stroke="#000" fill="#ffffff"/>
    <rect id="svg_1736" height="1" width="1" y="75" x="95" stroke-width="0" stroke="#000" fill="#ffffff"/>
    <rect id="svg_1737" height="1" width="1" y="74" x="94" stroke-width="0" stroke="#000" fill="#ffffff"/>
    <rect id="svg_1738" height="1" width="2" y="73" x="92" stroke-width="0" stroke="#000" fill="#ffffff"/>
    <rect id="svg_1739" height="1" width="3" y="72" x="89" stroke-width="0" stroke="#000" fill="#ffffff"/>
    <rect y="71" id="svg_1740" height="1" width="6" x="83" stroke-width="0" stroke="#000" fill="#ffffff"/>
    <rect id="svg_1741" height="1" width="3" y="72" x="80" stroke-width="0" stroke="#000" fill="#ffffff"/>
    <rect id="svg_1742" height="1" width="2" y="73" x="78" stroke-width="0" stroke="#000" fill="#ffffff"/>
    <rect id="svg_1743" height="1" width="1" y="74" x="77" stroke-width="0" stroke="#000" fill="#ffffff"/>
    <rect id="svg_1744" height="1" width="1" y="75" x="76" stroke-width="0" stroke="#000" fill="#ffffff"/>
    <rect id="svg_1745" height="1" width="1" y="76" x="75" stroke-width="0" stroke="#000" fill="#ffffff"/>
    <rect id="svg_1746" height="2" width="1" y="77" x="74" stroke-width="0" stroke="#000" fill="#ffffff"/>
    <rect id="svg_1747" height="2" width="1" y="79" x="73" stroke-width="0" stroke="#000" fill="#ffffff"/>
    <rect id="svg_1748" height="3" width="1" y="81" x="72" stroke-width="0" stroke="#000" fill="#ffffff"/>
    <rect id="svg_1749" height="4" width="1" y="84" x="71" stroke-width="0" stroke="#000" fill="#ffffff"/>
    <rect id="svg_1750" height="3" width="1" y="88" x="72" stroke-width="0" stroke="#000" fill="#ffffff"/>
    <rect id="svg_1751" height="2" width="1" y="91" x="73" stroke-width="0" stroke="#000" fill="#ffffff"/>
    <rect id="svg_1752" height="2" width="1" y="93" x="74" stroke-width="0" stroke="#000" fill="#ffffff"/>
    <rect id="svg_1753" height="1" width="1" y="95" x="75" stroke-width="0" stroke="#000" fill="#ffffff"/>
    <rect id="svg_1754" height="1" width="1" y="96" x="76" stroke-width="0" stroke="#000" fill="#ffffff"/>
    <rect id="svg_1755" height="1" width="1" y="97" x="77" stroke-width="0" stroke="#000" fill="#ffffff"/>
    <rect id="svg_1756" height="1" width="2" y="98" x="78" stroke-width="0" stroke="#000" fill="#ffffff"/>
    <rect id="svg_1757" height="1" width="3" y="99" x="80" stroke-width="0" stroke="#000" fill="#ffffff"/>
    <rect id="svg_1758" height="1" width="6" y="100" x="83" stroke-width="0" stroke="#000" fill="#ffffff"/>
    <rect id="svg_1759" height="1" width="3" y="99" x="89" stroke-width="0" stroke="#000" fill="#ffffff"/>
   </g>
  </g>
  <rect fill="#ffffff" stroke="#000" stroke-width="0" x="-5" y="-4" width="120" height="120" id="svg_289" opacity="0.5"/>
  <g opacity="0.5" id="svg_308">
   <rect fill="#000000" stroke="#000" stroke-width="0" x="47.5" y="22" width="15" height="6" id="svg_290"/>
   <rect fill="#000000" stroke="#000" stroke-width="0" x="44.5" y="25" width="6" height="6" id="svg_292"/>
   <rect fill="#000000" stroke="#000" stroke-width="0" x="59.5" y="25" width="6" height="6" id="svg_293"/>
   <rect fill="#000000" stroke="#000" stroke-width="0" x="62.5" y="28" width="6" height="6" id="svg_294"/>
   <rect fill="#000000" stroke="#000" stroke-width="0" x="41.5" y="28" width="6" height="6" id="svg_295"/>
   <rect fill="#000000" stroke="#000" stroke-width="0" x="38.5" y="34" width="6" height="15" id="svg_296"/>
   <rect fill="#000000" stroke="#000" stroke-width="0" x="41.5" y="32" width="3" height="4" id="svg_297"/>
   <rect fill="#000000" stroke="#000" stroke-width="0" x="65.5" y="32" width="3" height="4" id="svg_298"/>
   <rect fill="#000000" stroke="#000" stroke-width="0" x="65.5" y="34" width="6" height="15" id="svg_299"/>
   <rect fill="#000000" stroke="#000" stroke-width="0" x="32.5" y="46" width="45" height="18" id="svg_300"/>
   <rect fill="#000000" stroke="#000" stroke-width="0" x="32.5" y="63" width="18" height="25" id="svg_301"/>
   <rect fill="#000000" stroke="#000" stroke-width="0" x="59.5" y="63" width="18" height="25" id="svg_302"/>
   <rect fill="#000000" stroke="#000" stroke-width="0" x="29.5" y="49" width="6" height="39" id="svg_303"/>
   <rect fill="#000000" stroke="#000" stroke-width="0" x="74.5" y="49" width="6" height="39" id="svg_304"/>
   <rect fill="#000000" stroke="#000" stroke-width="0" x="49.5" y="79" width="11" height="9" id="svg_305"/>
   <rect fill="#000000" stroke="#000" stroke-width="0" x="47.5" y="73" width="6" height="12" id="svg_306"/>
   <rect fill="#000000" stroke="#000" stroke-width="0" x="56.5" y="73" width="6" height="12" id="svg_307"/>
  </g>
 </g>

</svg>