<svg width="110" height="110" xmlns="http://www.w3.org/2000/svg">
 <g id="Layer_1">
  <title>Layer 1</title>
  <rect fill="#ffffff" stroke="#000" stroke-width="0" x="67.78481" y="-13.86076" width="0" height="0.07911" id="svg_871"/>
  <rect fill="#ffffff" stroke="#000" stroke-width="0" x="8" y="0" width="94" height="2" id="svg_865"/>
  <rect fill="#ffffff" stroke="#000" stroke-width="0" x="0" y="7.87326" width="2" height="94" id="svg_867"/>
  <rect fill="#ffffff" stroke="#000" stroke-width="0" x="8" y="108" width="94" height="2" id="svg_868"/>
  <rect fill="#ffffff" stroke="#000" stroke-width="0" x="108" y="8" width="2" height="94" id="svg_869"/>
  <rect fill="#ffffff" stroke="#000" stroke-width="0" x="6" y="1" width="3" height="2" id="svg_870"/>
  <rect fill="#ffffff" stroke="#000" stroke-width="0" x="1" y="6" width="2" height="3" id="svg_872"/>
  <rect fill="#ffffff" stroke="#000" stroke-width="0" x="2" y="5" width="2" height="2" id="svg_874"/>
  <rect fill="#ffffff" stroke="#000" stroke-width="0" x="3" y="4" width="2" height="2" id="svg_875"/>
  <rect fill="#ffffff" stroke="#000" stroke-width="0" x="4" y="3" width="2" height="2" id="svg_876"/>
  <rect fill="#ffffff" stroke="#000" stroke-width="0" x="5" y="2" width="2" height="2" id="svg_877"/>
  <rect fill="#ffffff" stroke="#000" stroke-width="0" x="101" y="1" width="3" height="2" id="svg_878"/>
  <rect fill="#ffffff" stroke="#000" stroke-width="0" x="103" y="2" width="2" height="2" id="svg_879"/>
  <rect fill="#ffffff" stroke="#000" stroke-width="0" x="104" y="3" width="2" height="2" id="svg_880"/>
  <rect fill="#ffffff" stroke="#000" stroke-width="0" x="105" y="4" width="2" height="2" id="svg_881"/>
  <rect fill="#ffffff" stroke="#000" stroke-width="0" x="106" y="5" width="2" height="2" id="svg_882"/>
  <rect fill="#ffffff" stroke="#000" stroke-width="0" x="107" y="6" width="2" height="3" id="svg_883"/>
  <rect fill="#ffffff" stroke="#000" stroke-width="0" x="1" y="101" width="2" height="3" id="svg_884"/>
  <rect fill="#ffffff" stroke="#000" stroke-width="0" x="2" y="103" width="2" height="2" id="svg_885"/>
  <rect fill="#ffffff" stroke="#000" stroke-width="0" x="3" y="104" width="2" height="2" id="svg_886"/>
  <rect fill="#ffffff" stroke="#000" stroke-width="0" x="4" y="105" width="2" height="2" id="svg_887"/>
  <rect fill="#ffffff" stroke="#000" stroke-width="0" x="5" y="106" width="2" height="2" id="svg_888"/>
  <rect fill="#ffffff" stroke="#000" stroke-width="0" x="6" y="107" width="3" height="2" id="svg_889"/>
  <rect fill="#ffffff" stroke="#000" stroke-width="0" x="101" y="107" width="3" height="2" id="svg_890"/>
  <rect fill="#ffffff" stroke="#000" stroke-width="0" x="103" y="106" width="2" height="2" id="svg_891"/>
  <rect fill="#ffffff" stroke="#000" stroke-width="0" x="104" y="105" width="2" height="2" id="svg_892"/>
  <rect fill="#ffffff" stroke="#000" stroke-width="0" x="105" y="104" width="2" height="2" id="svg_893"/>
  <rect fill="#ffffff" stroke="#000" stroke-width="0" x="106" y="103" width="2" height="2" id="svg_894"/>
  <rect fill="#ffffff" stroke="#000" stroke-width="0" x="107" y="101" width="2" height="3" id="svg_895"/>
  <g id="svg_993">
   <g id="svg_940">
    <rect id="svg_898" height="5" width="10" y="26" x="19" stroke-width="0" stroke="#000" fill="#07ff07"/>
    <g id="svg_901">
     <rect id="svg_899" height="2" width="2" y="18.0382" x="23" stroke-width="0" stroke="#000" fill="#fbfe00"/>
     <rect id="svg_900" height="2" width="1" y="17" x="23" stroke-width="0" stroke="#000" fill="#fbfe00"/>
    </g>
    <rect id="svg_902" height="2" width="4" y="19" x="22" stroke-width="0" stroke="#000" fill="#07ff07"/>
    <rect id="svg_903" height="3" width="8" y="20" x="20" stroke-width="0" stroke="#000" fill="#07ff07"/>
    <rect id="svg_904" height="3" width="10" y="22" x="19" stroke-width="0" stroke="#000" fill="#07ff07"/>
    <rect id="svg_905" height="2" width="12" y="24" x="18" stroke-width="0" stroke="#000" fill="#07ff07"/>
    <g id="svg_908">
     <rect fill="#fbfe00" stroke="#000" stroke-width="0" x="19" y="24" width="2" height="2" id="svg_906"/>
     <rect id="svg_907" height="3" width="1" y="23" x="20" stroke-width="0" stroke="#000" fill="#fbfe00"/>
    </g>
    <rect id="svg_909" height="1" width="1" y="25" x="19" stroke-width="0" stroke="#000" fill="#000000"/>
    <g id="svg_912">
     <rect id="svg_910" height="3" width="7" y="28.9704" x="20" stroke-width="0" stroke="#000" fill="#ffffff"/>
     <rect id="svg_911" height="2" width="5" y="27.9704" x="21" stroke-width="0" stroke="#000" fill="#ffffff"/>
    </g>
    <rect id="svg_913" height="1" width="10" y="26" x="20" stroke-width="0" stroke="#000" fill="#000000"/>
    <g id="svg_922">
     <g id="svg_917">
      <rect id="svg_914" height="5" width="2" y="21" x="22" stroke-width="0" stroke="#000" fill="#ffffff"/>
      <rect id="svg_915" height="3" width="2" y="22" x="21" stroke-width="0" stroke="#000" fill="#ffffff"/>
      <rect id="svg_916" height="3" width="1" y="21" x="23" stroke-width="0" stroke="#000" fill="#000000"/>
     </g>
     <g id="svg_921">
      <rect id="svg_918" height="5" width="2" y="20.96181" x="25" stroke-width="0" stroke="#000" fill="#ffffff" transform="rotate(-180 26 23.4618)"/>
      <rect id="svg_919" height="3" width="2" y="21.96181" x="26" stroke-width="0" stroke="#000" fill="#ffffff" transform="rotate(-180 27 23.4618)"/>
      <rect id="svg_920" height="3" width="1" y="20.9704" x="25" stroke-width="0" stroke="#000" fill="#000000"/>
     </g>
    </g>
    <g id="svg_925">
     <rect fill="#fbfe00" stroke="#000" stroke-width="0" x="28" y="24" width="2" height="2" id="svg_923"/>
     <rect fill="#fbfe00" stroke="#000" stroke-width="0" x="28" y="23" width="1" height="2" id="svg_924"/>
    </g>
    <g id="svg_929">
     <rect id="svg_926" height="1" width="3" y="28" x="17" stroke-width="0" stroke="#000" fill="#fe7677"/>
     <rect fill="#fe7677" stroke="#000" stroke-width="0" x="17" y="27" width="1" height="2" id="svg_927"/>
     <rect fill="#fe7677" stroke="#000" stroke-width="0" x="18" y="28" width="1" height="2" id="svg_928"/>
    </g>
    <rect id="svg_930" height="1" width="4" y="28" x="28" stroke-width="0" stroke="#000" fill="#fe7677"/>
    <rect fill="#fe7677" stroke="#000" stroke-width="0" x="29" y="27" width="2" height="3" id="svg_931"/>
    <g id="svg_939">
     <g id="svg_934">
      <rect id="svg_932" height="2" width="2" y="30" x="26" stroke-width="0" stroke="#000" fill="#fe7677"/>
      <rect id="svg_933" height="1" width="4" y="31" x="25" stroke-width="0" stroke="#000" fill="#fe7677"/>
     </g>
     <g id="svg_938">
      <rect id="svg_935" height="2" width="2" y="30" x="19" stroke-width="0" stroke="#000" fill="#fe7677"/>
      <rect id="svg_936" height="1" width="4" y="31" x="18" stroke-width="0" stroke="#000" fill="#fe7677"/>
      <rect id="svg_937" height="2" width="3" y="31" x="19" stroke-width="0" stroke="#000" fill="#fe7677"/>
     </g>
    </g>
   </g>
   <g id="svg_955">
    <g id="svg_943">
     <rect fill="#ffffff" stroke="#000" stroke-width="0" x="32" y="30" width="1" height="2" id="svg_941"/>
     <rect fill="#ffffff" stroke="#000" stroke-width="0" x="31" y="31" width="2" height="1" id="svg_942"/>
    </g>
    <g id="svg_949">
     <rect fill="#ffffff" stroke="#000" stroke-width="0" x="29" y="33" width="2" height="1" id="svg_944"/>
     <rect fill="#ffffff" stroke="#000" stroke-width="0" x="29" y="33" width="1" height="2" id="svg_945"/>
     <rect fill="#ffffff" stroke="#000" stroke-width="0" x="28" y="34" width="2" height="1" id="svg_946"/>
     <rect fill="#ffffff" stroke="#000" stroke-width="0" x="28" y="34" width="1" height="2" id="svg_947"/>
     <rect fill="#ffffff" stroke="#000" stroke-width="0" x="27" y="35" width="2" height="1" id="svg_948"/>
    </g>
    <rect fill="#ffffff" stroke="#000" stroke-width="0" x="19" y="12" width="3" height="2" id="svg_950"/>
    <g id="svg_954">
     <rect fill="#ffffff" stroke="#000" stroke-width="0" x="16" y="14" width="2" height="2" id="svg_951"/>
     <rect fill="#ffffff" stroke="#000" stroke-width="0" x="15" y="15" width="2" height="2" id="svg_952"/>
     <rect fill="#ffffff" stroke="#000" stroke-width="0" x="14" y="16" width="2" height="2" id="svg_953"/>
    </g>
   </g>
   <g id="svg_992">
    <rect fill="#ffffff" stroke="#000" stroke-width="0" x="30" y="36" width="2" height="1" id="svg_956"/>
    <rect fill="#ffffff" stroke="#000" stroke-width="0" x="32.03588" y="35" width="1" height="1" id="svg_957"/>
    <rect fill="#ffffff" stroke="#000" stroke-width="0" x="33" y="34" width="1" height="1" id="svg_958"/>
    <rect fill="#ffffff" stroke="#000" stroke-width="0" x="34" y="33" width="1" height="1" id="svg_959"/>
    <rect fill="#ffffff" stroke="#000" stroke-width="0" x="35" y="31" width="1" height="2" id="svg_960"/>
    <rect fill="#ffffff" stroke="#000" stroke-width="0" x="36" y="29" width="1" height="2" id="svg_961"/>
    <rect fill="#ffffff" stroke="#000" stroke-width="0" x="37" y="26" width="1" height="3" id="svg_962"/>
    <rect fill="#ffffff" stroke="#000" stroke-width="0" x="38" y="22" width="1" height="4" id="svg_963"/>
    <rect fill="#ffffff" stroke="#000" stroke-width="0" x="37" y="19" width="1" height="3" id="svg_964"/>
    <rect fill="#ffffff" stroke="#000" stroke-width="0" x="36" y="17" width="1" height="2" id="svg_965"/>
    <rect fill="#ffffff" stroke="#000" stroke-width="0" x="35" y="15" width="1" height="2" id="svg_966"/>
    <rect fill="#ffffff" stroke="#000" stroke-width="0" x="34" y="14" width="1" height="1" id="svg_967"/>
    <rect fill="#ffffff" stroke="#000" stroke-width="0" x="33" y="13" width="1" height="1" id="svg_968"/>
    <rect fill="#ffffff" stroke="#000" stroke-width="0" x="32" y="12" width="1" height="1" id="svg_969"/>
    <rect fill="#ffffff" stroke="#000" stroke-width="0" x="30" y="11" width="2" height="1" id="svg_970"/>
    <rect fill="#ffffff" stroke="#000" stroke-width="0" x="27" y="10" width="3" height="1" id="svg_971"/>
    <rect fill="#ffffff" stroke="#000" stroke-width="0" x="21" width="6" height="1" id="svg_972" y="9"/>
    <rect fill="#ffffff" stroke="#000" stroke-width="0" x="18" y="10" width="3" height="1" id="svg_973"/>
    <rect fill="#ffffff" stroke="#000" stroke-width="0" x="16" y="11" width="2" height="1" id="svg_974"/>
    <rect fill="#ffffff" stroke="#000" stroke-width="0" x="15" y="12" width="1" height="1" id="svg_975"/>
    <rect fill="#ffffff" stroke="#000" stroke-width="0" x="14" y="13" width="1" height="1" id="svg_976"/>
    <rect fill="#ffffff" stroke="#000" stroke-width="0" x="13" y="14" width="1" height="1" id="svg_977"/>
    <rect fill="#ffffff" stroke="#000" stroke-width="0" x="12" y="15" width="1" height="2" id="svg_978"/>
    <rect fill="#ffffff" stroke="#000" stroke-width="0" x="11" y="17" width="1" height="2" id="svg_979"/>
    <rect fill="#ffffff" stroke="#000" stroke-width="0" x="10" y="19" width="1" height="3" id="svg_980"/>
    <rect fill="#ffffff" stroke="#000" stroke-width="0" x="9" y="22" width="1" height="4" id="svg_981"/>
    <rect fill="#ffffff" stroke="#000" stroke-width="0" x="10" y="26" width="1" height="3" id="svg_982"/>
    <rect fill="#ffffff" stroke="#000" stroke-width="0" x="11" y="29" width="1" height="2" id="svg_983"/>
    <rect fill="#ffffff" stroke="#000" stroke-width="0" x="12" y="31" width="1" height="2" id="svg_984"/>
    <rect fill="#ffffff" stroke="#000" stroke-width="0" x="13" y="33" width="1" height="1" id="svg_985"/>
    <rect fill="#ffffff" stroke="#000" stroke-width="0" x="14" y="34" width="1" height="1" id="svg_986"/>
    <rect fill="#ffffff" stroke="#000" stroke-width="0" x="15" y="35" width="1" height="1" id="svg_987"/>
    <rect fill="#ffffff" stroke="#000" stroke-width="0" x="16" y="36" width="2" height="1" id="svg_988"/>
    <rect fill="#ffffff" stroke="#000" stroke-width="0" x="18" y="37" width="3" height="1" id="svg_989"/>
    <rect fill="#ffffff" stroke="#000" stroke-width="0" x="21" y="38" width="6" height="1" id="svg_990"/>
    <rect fill="#ffffff" stroke="#000" stroke-width="0" x="27" y="37" width="3" height="1" id="svg_991"/>
   </g>
  </g>
  <g id="svg_1761">
   <g id="svg_1708">
    <rect id="svg_1666" height="5" width="10" y="88" x="81" stroke-width="0" stroke="#000" fill="#07ff07"/>
    <g id="svg_1669">
     <rect id="svg_1667" height="2" width="2" y="80.0382" x="85" stroke-width="0" stroke="#000" fill="#fbfe00"/>
     <rect id="svg_1668" height="2" width="1" y="79" x="85" stroke-width="0" stroke="#000" fill="#fbfe00"/>
    </g>
    <rect id="svg_1670" height="2" width="4" y="81" x="84" stroke-width="0" stroke="#000" fill="#07ff07"/>
    <rect id="svg_1671" height="3" width="8" y="82" x="82" stroke-width="0" stroke="#000" fill="#07ff07"/>
    <rect id="svg_1672" height="3" width="10" y="84" x="81" stroke-width="0" stroke="#000" fill="#07ff07"/>
    <rect id="svg_1673" height="2" width="12" y="86" x="80" stroke-width="0" stroke="#000" fill="#07ff07"/>
    <g id="svg_1676">
     <rect fill="#fbfe00" stroke="#000" stroke-width="0" x="81" y="86" width="2" height="2" id="svg_1674"/>
     <rect id="svg_1675" height="3" width="1" y="85" x="82" stroke-width="0" stroke="#000" fill="#fbfe00"/>
    </g>
    <rect id="svg_1677" height="1" width="1" y="87" x="81" stroke-width="0" stroke="#000" fill="#000000"/>
    <g id="svg_1680">
     <rect id="svg_1678" height="3" width="7" y="90.9704" x="82" stroke-width="0" stroke="#000" fill="#ffffff"/>
     <rect id="svg_1679" height="2" width="5" y="89.9704" x="83" stroke-width="0" stroke="#000" fill="#ffffff"/>
    </g>
    <rect id="svg_1681" height="1" width="10" y="88" x="82" stroke-width="0" stroke="#000" fill="#000000"/>
    <g id="svg_1690">
     <g id="svg_1685">
      <rect id="svg_1682" height="5" width="2" y="83" x="84" stroke-width="0" stroke="#000" fill="#ffffff"/>
      <rect id="svg_1683" height="3" width="2" y="84" x="83" stroke-width="0" stroke="#000" fill="#ffffff"/>
      <rect id="svg_1684" height="3" width="1" y="83" x="85" stroke-width="0" stroke="#000" fill="#000000"/>
     </g>
     <g id="svg_1689">
      <rect id="svg_1686" height="5" width="2" y="82.96181" x="87" stroke-width="0" stroke="#000" fill="#ffffff" transform="rotate(-180 88 85.4618)"/>
      <rect id="svg_1687" height="3" width="2" y="83.96181" x="88" stroke-width="0" stroke="#000" fill="#ffffff" transform="rotate(-180 89 85.4618)"/>
      <rect id="svg_1688" height="3" width="1" y="82.9704" x="87" stroke-width="0" stroke="#000" fill="#000000"/>
     </g>
    </g>
    <g id="svg_1693">
     <rect fill="#fbfe00" stroke="#000" stroke-width="0" x="90" y="86" width="2" height="2" id="svg_1691"/>
     <rect fill="#fbfe00" stroke="#000" stroke-width="0" x="90" y="85" width="1" height="2" id="svg_1692"/>
    </g>
    <g id="svg_1697">
     <rect id="svg_1694" height="1" width="3" y="90" x="79" stroke-width="0" stroke="#000" fill="#fe7677"/>
     <rect fill="#fe7677" stroke="#000" stroke-width="0" x="79" y="89" width="1" height="2" id="svg_1695"/>
     <rect fill="#fe7677" stroke="#000" stroke-width="0" x="80" y="90" width="1" height="2" id="svg_1696"/>
    </g>
    <rect id="svg_1698" height="1" width="4" y="90" x="90" stroke-width="0" stroke="#000" fill="#fe7677"/>
    <rect fill="#fe7677" stroke="#000" stroke-width="0" x="91" y="89" width="2" height="3" id="svg_1699"/>
    <g id="svg_1707">
     <g id="svg_1702">
      <rect id="svg_1700" height="2" width="2" y="92" x="88" stroke-width="0" stroke="#000" fill="#fe7677"/>
      <rect id="svg_1701" height="1" width="4" y="93" x="87" stroke-width="0" stroke="#000" fill="#fe7677"/>
     </g>
     <g id="svg_1706">
      <rect id="svg_1703" height="2" width="2" y="92" x="81" stroke-width="0" stroke="#000" fill="#fe7677"/>
      <rect id="svg_1704" height="1" width="4" y="93" x="80" stroke-width="0" stroke="#000" fill="#fe7677"/>
      <rect id="svg_1705" height="2" width="3" y="93" x="81" stroke-width="0" stroke="#000" fill="#fe7677"/>
     </g>
    </g>
   </g>
   <g id="svg_1723">
    <g id="svg_1711">
     <rect fill="#ffffff" stroke="#000" stroke-width="0" x="94" y="92" width="1" height="2" id="svg_1709"/>
     <rect fill="#ffffff" stroke="#000" stroke-width="0" x="93" y="93" width="2" height="1" id="svg_1710"/>
    </g>
    <g id="svg_1717">
     <rect fill="#ffffff" stroke="#000" stroke-width="0" x="91" y="95" width="2" height="1" id="svg_1712"/>
     <rect fill="#ffffff" stroke="#000" stroke-width="0" x="91" y="95" width="1" height="2" id="svg_1713"/>
     <rect fill="#ffffff" stroke="#000" stroke-width="0" x="90" y="96" width="2" height="1" id="svg_1714"/>
     <rect fill="#ffffff" stroke="#000" stroke-width="0" x="90" y="96" width="1" height="2" id="svg_1715"/>
     <rect fill="#ffffff" stroke="#000" stroke-width="0" x="89" y="97" width="2" height="1" id="svg_1716"/>
    </g>
    <rect fill="#ffffff" stroke="#000" stroke-width="0" x="81" y="74" width="3" height="2" id="svg_1718"/>
    <g id="svg_1722">
     <rect fill="#ffffff" stroke="#000" stroke-width="0" x="78" y="76" width="2" height="2" id="svg_1719"/>
     <rect fill="#ffffff" stroke="#000" stroke-width="0" x="77" y="77" width="2" height="2" id="svg_1720"/>
     <rect fill="#ffffff" stroke="#000" stroke-width="0" x="76" y="78" width="2" height="2" id="svg_1721"/>
    </g>
   </g>
   <g id="svg_1760">
    <rect fill="#ffffff" stroke="#000" stroke-width="0" x="92" y="98" width="2" height="1" id="svg_1724"/>
    <rect fill="#ffffff" stroke="#000" stroke-width="0" x="94.03588" y="97" width="1" height="1" id="svg_1725"/>
    <rect fill="#ffffff" stroke="#000" stroke-width="0" x="95" y="96" width="1" height="1" id="svg_1726"/>
    <rect fill="#ffffff" stroke="#000" stroke-width="0" x="96" y="95" width="1" height="1" id="svg_1727"/>
    <rect fill="#ffffff" stroke="#000" stroke-width="0" x="97" y="93" width="1" height="2" id="svg_1728"/>
    <rect fill="#ffffff" stroke="#000" stroke-width="0" x="98" y="91" width="1" height="2" id="svg_1729"/>
    <rect fill="#ffffff" stroke="#000" stroke-width="0" x="99" y="88" width="1" height="3" id="svg_1730"/>
    <rect fill="#ffffff" stroke="#000" stroke-width="0" x="100" y="84" width="1" height="4" id="svg_1731"/>
    <rect fill="#ffffff" stroke="#000" stroke-width="0" x="99" y="81" width="1" height="3" id="svg_1732"/>
    <rect fill="#ffffff" stroke="#000" stroke-width="0" x="98" y="79" width="1" height="2" id="svg_1733"/>
    <rect fill="#ffffff" stroke="#000" stroke-width="0" x="97" y="77" width="1" height="2" id="svg_1734"/>
    <rect fill="#ffffff" stroke="#000" stroke-width="0" x="96" y="76" width="1" height="1" id="svg_1735"/>
    <rect fill="#ffffff" stroke="#000" stroke-width="0" x="95" y="75" width="1" height="1" id="svg_1736"/>
    <rect fill="#ffffff" stroke="#000" stroke-width="0" x="94" y="74" width="1" height="1" id="svg_1737"/>
    <rect fill="#ffffff" stroke="#000" stroke-width="0" x="92" y="73" width="2" height="1" id="svg_1738"/>
    <rect fill="#ffffff" stroke="#000" stroke-width="0" x="89" y="72" width="3" height="1" id="svg_1739"/>
    <rect fill="#ffffff" stroke="#000" stroke-width="0" x="83" width="6" height="1" id="svg_1740" y="71"/>
    <rect fill="#ffffff" stroke="#000" stroke-width="0" x="80" y="72" width="3" height="1" id="svg_1741"/>
    <rect fill="#ffffff" stroke="#000" stroke-width="0" x="78" y="73" width="2" height="1" id="svg_1742"/>
    <rect fill="#ffffff" stroke="#000" stroke-width="0" x="77" y="74" width="1" height="1" id="svg_1743"/>
    <rect fill="#ffffff" stroke="#000" stroke-width="0" x="76" y="75" width="1" height="1" id="svg_1744"/>
    <rect fill="#ffffff" stroke="#000" stroke-width="0" x="75" y="76" width="1" height="1" id="svg_1745"/>
    <rect fill="#ffffff" stroke="#000" stroke-width="0" x="74" y="77" width="1" height="2" id="svg_1746"/>
    <rect fill="#ffffff" stroke="#000" stroke-width="0" x="73" y="79" width="1" height="2" id="svg_1747"/>
    <rect fill="#ffffff" stroke="#000" stroke-width="0" x="72" y="81" width="1" height="3" id="svg_1748"/>
    <rect fill="#ffffff" stroke="#000" stroke-width="0" x="71" y="84" width="1" height="4" id="svg_1749"/>
    <rect fill="#ffffff" stroke="#000" stroke-width="0" x="72" y="88" width="1" height="3" id="svg_1750"/>
    <rect fill="#ffffff" stroke="#000" stroke-width="0" x="73" y="91" width="1" height="2" id="svg_1751"/>
    <rect fill="#ffffff" stroke="#000" stroke-width="0" x="74" y="93" width="1" height="2" id="svg_1752"/>
    <rect fill="#ffffff" stroke="#000" stroke-width="0" x="75" y="95" width="1" height="1" id="svg_1753"/>
    <rect fill="#ffffff" stroke="#000" stroke-width="0" x="76" y="96" width="1" height="1" id="svg_1754"/>
    <rect fill="#ffffff" stroke="#000" stroke-width="0" x="77" y="97" width="1" height="1" id="svg_1755"/>
    <rect fill="#ffffff" stroke="#000" stroke-width="0" x="78" y="98" width="2" height="1" id="svg_1756"/>
    <rect fill="#ffffff" stroke="#000" stroke-width="0" x="80" y="99" width="3" height="1" id="svg_1757"/>
    <rect fill="#ffffff" stroke="#000" stroke-width="0" x="83" y="100" width="6" height="1" id="svg_1758"/>
    <rect fill="#ffffff" stroke="#000" stroke-width="0" x="89" y="99" width="3" height="1" id="svg_1759"/>
   </g>
  </g>
 </g>

</svg>