<svg width="32" height="15" xmlns="http://www.w3.org/2000/svg">

 <g>
  <title>Layer 1</title>
  <rect id="svg_27" height="15" width="32" y="0" x="0" stroke-width="0" stroke="#000" fill="#000000"/>
  <g id="svg_23">
   <rect stroke-width="0" id="svg_1" height="13" width="32" y="0" x="0" stroke="#000" fill="#ffab01"/>
   <rect stroke-width="0" id="svg_21" height="2" width="30" y="12" x="1" stroke="#000" fill="#ffab01"/>
   <rect stroke-width="0" id="svg_22" height="2" width="28" y="13" x="2" stroke="#000" fill="#ffab01"/>
  </g>
  <rect id="svg_3" height="1" width="5" y="0" x="27" stroke-width="0" stroke="#000" fill="#e87f00"/>
  <rect id="svg_5" height="1" width="1" y="2" x="31" stroke-width="0" stroke="#000" fill="#e87f00"/>
  <rect id="svg_6" height="1" width="1" y="3.95749" x="31" stroke-width="0" stroke="#000" fill="#e87f00"/>
  <rect id="svg_10" height="2" width="5" y="1" x="2" stroke-width="0" stroke="#000" fill="#e87f00"/>
  <rect id="svg_11" height="4" width="1" y="5" x="6" stroke-width="0" stroke="#000" fill="#e87f00"/>
  <rect id="svg_12" height="2" width="6" y="3" x="10" stroke-width="0" stroke="#000" fill="#e87f00"/>
  <rect id="svg_13" height="4" width="1" y="6" x="21" stroke-width="0" stroke="#000" fill="#e87f00"/>
  <rect id="svg_14" height="1" width="5" y="11" x="13" stroke-width="0" stroke="#000" fill="#e87f00"/>
  <rect id="svg_15" height="3" width="1" y="6" x="15" stroke-width="0" stroke="#000" fill="#e87f00"/>
  <rect id="svg_16" height="1" width="3" y="4" x="19" stroke-width="0" stroke="#000" fill="#e87f00"/>
  <rect id="svg_17" height="4" width="1" y="1" x="23" stroke-width="0" stroke="#000" fill="#e87f00"/>
  <rect id="svg_18" height="1" width="3" y="12" x="1" stroke-width="0" stroke="#000" fill="#e87f00"/>
  <rect id="svg_19" height="4" width="2" y="6" x="3" stroke-width="0" stroke="#000" fill="#e87f00"/>
  <rect id="svg_20" height="1" width="4" y="8" x="9" stroke-width="0" stroke="#000" fill="#e87f00"/>
  <rect id="svg_24" height="5" width="1" y="7" x="24" stroke-width="0" stroke="#000" fill="#e87f00"/>
  <rect id="svg_25" height="4" width="2" y="4" x="27" stroke-width="0" stroke="#000" fill="#e87f00"/>
  <rect id="svg_26" height="4" width="1" y="10" x="8" stroke-width="0" stroke="#000" fill="#e87f00"/>
 </g>
</svg>