<svg width="105" height="25.000000000000004" xmlns="http://www.w3.org/2000/svg">
 <g id="Layer_1">
  <title>Layer 1</title>
  <g id="svg_30">
   <rect id="svg_5" height="2" width="3" y="11" x="45.50991" stroke-width="0" stroke="#000" fill="#fbfe00"/>
   <rect id="svg_6" height="2" width="1" y="9.9618" x="46.50991" stroke-width="0" stroke="#000" fill="#fbfe00"/>
  </g>
  <g id="svg_47">
   <rect id="svg_9" height="2" width="5" y="11.9618" x="44.50991" stroke-width="0" stroke="#000" fill="#07ff07"/>
   <rect id="svg_10" height="3" width="9" y="12.9618" x="42.50991" stroke-width="0" stroke="#000" fill="#07ff07"/>
   <rect id="svg_11" height="3" width="11" y="14.9618" x="41.50991" stroke-width="0" stroke="#000" fill="#07ff07"/>
   <rect id="svg_12" height="7" width="13" y="16.9618" x="40.50991" stroke-width="0" stroke="#000" fill="#07ff07"/>
  </g>
  <rect id="svg_13" height="2" width="1" y="16.9618" x="42.50991" stroke-width="0" stroke="#000" fill="#fbfe00"/>
  <rect id="svg_14" height="1" width="1" y="17.9618" x="41.50991" stroke-width="0" stroke="#000" fill="#000000"/>
  <g id="svg_46">
   <g id="svg_44">
    <rect id="svg_42" height="3" width="7" y="21.9618" x="43.50991" stroke-width="0" stroke="#000" fill="#ffffff"/>
    <rect id="svg_43" height="2" width="5" y="20.9618" x="44.50991" stroke-width="0" stroke="#000" fill="#ffffff"/>
   </g>
   <g id="svg_45">
    <g id="svg_38">
     <rect id="svg_36" height="2" width="2" y="22.9618" x="42.54811" stroke-width="0" stroke="#000" fill="#fe7677"/>
     <rect id="svg_37" height="1" width="4" y="23.9618" x="41.54811" stroke-width="0" stroke="#000" fill="#fe7677"/>
    </g>
    <g id="svg_41">
     <rect id="svg_39" height="2" width="2" y="22.9618" x="49.50991" stroke-width="0" stroke="#000" fill="#fe7677"/>
     <rect id="svg_40" height="1" width="4" y="23.9618" x="48.50991" stroke-width="0" stroke="#000" fill="#fe7677"/>
    </g>
   </g>
  </g>
  <g id="svg_49">
   <g id="svg_26">
    <rect id="svg_15" height="5" width="2" y="13.9618" x="44.50991" stroke-width="0" stroke="#000" fill="#ffffff"/>
    <rect id="svg_16" height="3" width="2" y="14.9618" x="43.50991" stroke-width="0" stroke="#000" fill="#ffffff"/>
    <rect id="svg_22" height="3" width="1" y="14.9618" x="45.50991" stroke-width="0" stroke="#000" fill="#000000"/>
   </g>
   <g id="svg_27">
    <rect transform="rotate(-180 49.5099 16.4236)" id="svg_19" height="5" width="2" y="13.92361" x="48.50991" stroke-width="0" stroke="#000" fill="#ffffff"/>
    <rect transform="rotate(-180 50.5099 16.4236)" id="svg_20" height="3" width="2" y="14.92361" x="49.50991" stroke-width="0" stroke="#000" fill="#ffffff"/>
    <rect id="svg_23" height="3" width="1" y="14.92361" x="48.50991" stroke-width="0" stroke="#000" fill="#000000"/>
   </g>
  </g>
  <g id="svg_51">
   <rect id="svg_29" height="3" width="3" y="18.9618" x="39.50991" stroke-width="0" stroke="#000" fill="#ffffff"/>
   <g id="svg_50">
    <rect id="svg_35" height="2" width="2" y="20.9618" x="40.50991" stroke-width="0" stroke="#000" fill="#fe7677"/>
    <rect id="svg_31" height="2" width="3" y="19.9618" x="40.50991" stroke-width="0" stroke="#000" fill="#fe7677"/>
   </g>
  </g>
  <rect id="svg_28" height="1" width="9" y="18.9618" x="42.50991" stroke-width="0" stroke="#000" fill="#000000"/>
  <rect id="svg_32" height="1" width="2" y="20.9618" x="39.50991" stroke-width="0" stroke="#000" fill="#fe7677"/>
  <rect stroke="#000" id="svg_54" height="6" width="2" y="17.9618" x="51.50991" stroke-width="0" fill="#fe7677"/>
  <rect id="svg_55" height="3" width="2" y="17.9618" x="52.50991" stroke-width="0" stroke="#000" fill="#fe7677"/>
  <g id="svg_103">
   <rect id="svg_3" height="10" width="2" y="9.02997" x="51.51566" stroke-width="0" stroke="#000" fill="#ffabab"/>
   <g stroke="null" id="svg_67">
    <rect stroke="#000" id="svg_61" height="0.68169" width="0.68169" y="23.34801" x="51.47746" stroke-width="0" fill="#ffab01"/>
    <rect stroke="#000" id="svg_62" height="0.68169" width="0.68169" y="22.6995" x="52.84084" stroke-width="0" fill="#ea5b05"/>
    <rect stroke="#000" id="svg_63" height="0.68169" width="0.68169" y="23.35515" x="52.15915" stroke-width="0" fill="#ea5b05"/>
    <rect stroke="#000" id="svg_65" height="0.68169" width="0.68169" y="23.35515" x="52.8337" stroke-width="0" fill="#ffab01"/>
   </g>
   <g id="svg_68">
    <rect stroke="#000" id="svg_57" height="0.65623" width="0.65623" y="17.37374" x="51.51566" stroke-width="0" fill="#ffab01"/>
    <rect stroke="#000" id="svg_58" height="0.65623" width="0.65623" y="17.39881" x="52.82811" stroke-width="0" fill="#ffab01"/>
    <rect stroke="#000" id="svg_59" height="0.65623" width="0.65623" y="17.99177" x="52.17189" stroke-width="0" fill="#ffab01"/>
   </g>
   <rect id="svg_4" height="1" width="1" y="10.02997" x="52.0573" stroke-width="0" stroke="#000" fill="#000000"/>
  </g>
  <rect id="svg_2" height="2" width="101" y="7.9618" x="2" stroke-width="0" stroke="#000" fill="#ffab01"/>
  <rect id="svg_179" height="9" width="106" y="0" x="-0.06817" stroke-width="0" stroke="#000" fill="#ffabab"/>
  <g id="svg_196">
   <g id="svg_193">
    <g id="svg_82">
     <g id="svg_81">
      <rect id="svg_69" height="7" width="2" y="1" x="24" stroke-width="0" stroke="#000" fill="#000000"/>
      <rect id="svg_70" height="1" width="5" y="1" x="25" stroke-width="0" stroke="#000" fill="#000000"/>
      <rect id="svg_72" height="3" width="2" y="2" x="29" stroke-width="0" stroke="#000" fill="#000000"/>
      <rect id="svg_74" height="3" width="1" y="4" x="28" stroke-width="0" stroke="#000" fill="#000000"/>
      <rect id="svg_75" height="1" width="4" y="5" x="25" stroke-width="0" stroke="#000" fill="#000000"/>
      <rect id="svg_78" height="2" width="2" y="6" x="28.0382" stroke-width="0" stroke="#000" fill="#000000"/>
      <rect id="svg_79" height="1" width="2" y="7" x="29.0382" stroke-width="0" stroke="#000" fill="#000000"/>
      <rect id="svg_80" height="2" width="2" y="5" x="27" stroke-width="0" stroke="#000" fill="#000000"/>
     </g>
     <rect stroke="#000" id="svg_71" height="4" width="1" y="1" x="29.07639" stroke-width="0" fill="#000000"/>
     <rect id="svg_73" height="1" width="2" y="4" x="28.07639" stroke-width="0" stroke="#000" fill="#000000"/>
     <rect id="svg_77" height="1" width="3" y="6" x="27.07639" stroke-width="0" stroke="#000" fill="#000000"/>
    </g>
    <g id="svg_118">
     <rect stroke="#000" id="svg_107" height="1" width="2" y="2" x="5" stroke-width="0" fill="#000000"/>
     <rect id="svg_108" height="2" width="1" y="1" x="5" stroke-width="0" stroke="#000" fill="#000000"/>
     <rect id="svg_109" height="1" width="4" y="1" x="2" stroke-width="0" stroke="#000" fill="#000000"/>
     <rect id="svg_110" height="4" width="1" y="1" x="2" stroke-width="0" stroke="#000" fill="#000000"/>
     <rect id="svg_111" height="2" width="2" y="2" x="1" stroke-width="0" stroke="#000" fill="#000000"/>
     <rect id="svg_112" height="1" width="5" y="4" x="2" stroke-width="0" stroke="#000" fill="#000000"/>
     <rect id="svg_113" height="4" width="1" y="4" x="6" stroke-width="0" stroke="#000" fill="#000000"/>
     <rect id="svg_114" height="2" width="2" y="5" x="6" stroke-width="0" stroke="#000" fill="#000000"/>
     <rect id="svg_115" height="1" width="5" y="7" x="2" stroke-width="0" stroke="#000" fill="#000000"/>
     <rect id="svg_116" height="2" width="1" y="6" x="2" stroke-width="0" stroke="#000" fill="#000000"/>
     <path id="svg_117" d="m1,6l2,0l0,1l-2,0l0,-1z" opacity="undefined" stroke-width="0" stroke="#000" fill="#000000"/>
    </g>
    <g id="svg_121">
     <rect id="svg_119" height="1" width="6" y="1" x="9" stroke-width="0" stroke="#000" fill="#000000"/>
     <rect id="svg_120" height="7" width="2" y="1" x="11" stroke-width="0" stroke="#000" fill="#000000"/>
    </g>
    <g id="svg_134">
     <rect id="svg_126" height="1" width="3" y="1" x="18" stroke-width="0" stroke="#000" fill="#000000"/>
     <rect id="svg_122" height="5" width="2" y="3" x="16" stroke-width="0" stroke="#000" fill="#000000"/>
     <rect id="svg_123" height="2" width="1" y="2" x="17" stroke-width="0" stroke="#000" fill="#000000"/>
     <rect id="svg_124" height="1" width="2" y="2" x="17" stroke-width="0" stroke="#000" fill="#000000"/>
     <rect id="svg_125" height="2" width="1" y="1" x="18" stroke-width="0" stroke="#000" fill="#000000"/>
     <rect id="svg_128" height="5" width="2" y="3" x="21" stroke-width="0" stroke="#000" fill="#000000"/>
     <rect id="svg_129" height="2" width="1" y="2" x="21" stroke-width="0" stroke="#000" fill="#000000"/>
     <rect id="svg_130" height="1" width="2" y="2" x="20" stroke-width="0" stroke="#000" fill="#000000"/>
     <rect id="svg_131" height="2" width="1" y="1" x="20" stroke-width="0" stroke="#000" fill="#000000"/>
     <rect id="svg_133" height="1" width="5" y="5" x="17" stroke-width="0" stroke="#000" fill="#000000"/>
    </g>
    <g id="svg_135">
     <rect id="svg_98" height="7" width="2" y="1" x="34" stroke-width="0" stroke="#000" fill="#000000"/>
     <rect id="svg_99" height="1" width="6" y="1" x="32" stroke-width="0" stroke="#000" fill="#000000"/>
    </g>
   </g>
   <g id="svg_194">
    <g id="svg_142">
     <rect id="svg_136" height="7" width="2" y="1" x="44" stroke-width="0" stroke="#000" fill="#000000"/>
     <rect id="svg_137" height="3" width="2" y="2" x="45" stroke-width="0" stroke="#000" fill="#000000"/>
     <rect id="svg_138" height="2" width="2" y="3" x="46" stroke-width="0" stroke="#000" fill="#000000"/>
     <rect id="svg_139" height="2" width="2" y="4" x="47" stroke-width="0" stroke="#000" fill="#000000"/>
     <rect id="svg_140" height="3" width="2" y="4" x="48" stroke-width="0" stroke="#000" fill="#000000"/>
     <rect id="svg_141" height="7" width="2" y="1" x="49" stroke-width="0" stroke="#000" fill="#000000"/>
    </g>
    <g id="svg_154">
     <rect id="svg_147" height="7" width="2" y="1" x="60" stroke-width="0" stroke="#000" fill="#000000"/>
     <rect id="svg_148" height="3" width="2" y="4" x="61" stroke-width="0" stroke="#000" fill="#000000"/>
     <rect id="svg_149" height="2" width="1" y="3" x="63" stroke-width="0" stroke="#000" fill="#000000"/>
     <rect id="svg_150" height="2" width="3" y="4" x="62" stroke-width="0" stroke="#000" fill="#000000"/>
     <rect id="svg_151" height="3" width="2" y="4" x="64" stroke-width="0" stroke="#000" fill="#000000"/>
     <rect id="svg_152" height="7" width="2" y="1" x="65" stroke-width="0" stroke="#000" fill="#000000"/>
    </g>
    <g id="svg_187">
     <rect id="svg_143" height="7" width="2" y="1" x="52" stroke-width="0" stroke="#000" fill="#000000"/>
     <rect id="svg_144" height="1" width="5" y="4" x="53" stroke-width="0" stroke="#000" fill="#000000"/>
     <rect id="svg_145" height="1" width="6" y="1" x="53" stroke-width="0" stroke="#000" fill="#000000"/>
     <rect id="svg_146" height="1" width="6" y="7" x="53" stroke-width="0" stroke="#000" fill="#000000"/>
    </g>
   </g>
   <g id="svg_195">
    <g id="svg_166">
     <rect id="svg_155" height="1" width="5" y="1.06817" x="75" stroke-width="0" stroke="#000" fill="#000000"/>
     <rect id="svg_156" height="2" width="1" y="1.06817" x="75" stroke-width="0" stroke="#000" fill="#000000"/>
     <rect id="svg_157" height="1" width="2" y="2.06817" x="74" stroke-width="0" stroke="#000" fill="#000000"/>
     <rect id="svg_158" height="5" width="1" y="2.06817" x="74" stroke-width="0" stroke="#000" fill="#000000"/>
     <rect id="svg_159" height="1" width="2" y="6.06817" x="74" stroke-width="0" stroke="#000" fill="#000000"/>
     <rect id="svg_160" height="2" width="1" y="6.06817" x="75" stroke-width="0" stroke="#000" fill="#000000"/>
     <rect id="svg_161" height="1" width="4" y="7.06817" x="75" stroke-width="0" stroke="#000" fill="#000000"/>
     <rect id="svg_162" height="4" width="2" y="4.06817" x="78" stroke-width="0" stroke="#000" fill="#000000"/>
     <rect id="svg_163" height="1" width="2" y="4.06817" x="77" stroke-width="0" stroke="#000" fill="#000000"/>
     <rect id="svg_164" height="3" width="2" y="3.06817" x="73" stroke-width="0" stroke="#000" fill="#000000"/>
    </g>
    <g id="svg_177">
     <rect id="svg_167" height="1" width="3" y="1.06817" x="83" stroke-width="0" stroke="#000" fill="#000000"/>
     <rect id="svg_168" height="5" width="2" y="3.06817" x="81" stroke-width="0" stroke="#000" fill="#000000"/>
     <rect id="svg_169" height="2" width="1" y="2.06817" x="82" stroke-width="0" stroke="#000" fill="#000000"/>
     <rect id="svg_170" height="1" width="2" y="2.06817" x="82" stroke-width="0" stroke="#000" fill="#000000"/>
     <rect id="svg_171" height="2" width="1" y="1.06817" x="83" stroke-width="0" stroke="#000" fill="#000000"/>
     <rect id="svg_172" height="5" width="2" y="3.06817" x="86" stroke-width="0" stroke="#000" fill="#000000"/>
     <rect id="svg_173" height="2" width="1" y="2.06817" x="86" stroke-width="0" stroke="#000" fill="#000000"/>
     <rect id="svg_174" height="1" width="2" y="2.06817" x="85" stroke-width="0" stroke="#000" fill="#000000"/>
     <rect id="svg_175" height="2" width="1" y="1.06817" x="85" stroke-width="0" stroke="#000" fill="#000000"/>
     <rect id="svg_176" height="1" width="5" y="5.06817" x="82" stroke-width="0" stroke="#000" fill="#000000"/>
    </g>
    <g transform="rotate(-180 92.5 4.5)" id="svg_186">
     <rect id="svg_180" height="7" width="2" y="1" x="89" stroke-width="0" stroke="#000" fill="#000000"/>
     <rect id="svg_181" height="3" width="2" y="4" x="90" stroke-width="0" stroke="#000" fill="#000000"/>
     <rect id="svg_182" height="2" width="1" y="3" x="92" stroke-width="0" stroke="#000" fill="#000000"/>
     <rect id="svg_183" height="2" width="3" y="4" x="91" stroke-width="0" stroke="#000" fill="#000000"/>
     <rect id="svg_184" height="3" width="2" y="4" x="93" stroke-width="0" stroke="#000" fill="#000000"/>
     <rect id="svg_185" height="7" width="2" y="1" x="94" stroke-width="0" stroke="#000" fill="#000000"/>
    </g>
    <g id="svg_192">
     <rect id="svg_188" height="7" width="2" y="1" x="97" stroke-width="0" stroke="#000" fill="#000000"/>
     <rect id="svg_189" height="1" width="5" y="4" x="98" stroke-width="0" stroke="#000" fill="#000000"/>
     <rect id="svg_190" height="1" width="6" y="1" x="98" stroke-width="0" stroke="#000" fill="#000000"/>
     <rect id="svg_191" height="1" width="6" y="7" x="98" stroke-width="0" stroke="#000" fill="#000000"/>
    </g>
   </g>
  </g>
 </g>

</svg>