<svg width="31.000000000000004" height="25.000000000000004" xmlns="http://www.w3.org/2000/svg">
 <g id="Layer_1">
  <title>Layer 1</title>
  <g id="svg_30">
   <rect fill="#fbfe00" stroke="#000" stroke-width="0" x="9" y="11.04034" width="3" height="2" id="svg_5"/>
   <rect fill="#fbfe00" stroke="#000" stroke-width="0" x="10" y="10.00214" width="1" height="2" id="svg_6"/>
  </g>
  <g id="svg_47">
   <rect fill="#07ff07" stroke="#000" stroke-width="0" x="8" y="12.00214" width="5" height="2" id="svg_9"/>
   <rect fill="#07ff07" stroke="#000" stroke-width="0" x="6" y="13.00214" width="9" height="3" id="svg_10"/>
   <rect fill="#07ff07" stroke="#000" stroke-width="0" x="5" y="15.00214" width="11" height="3" id="svg_11"/>
   <rect fill="#07ff07" stroke="#000" stroke-width="0" x="4" y="17.00214" width="13" height="7" id="svg_12"/>
  </g>
  <rect fill="#fbfe00" stroke="#000" stroke-width="0" x="6" y="17.00214" width="1" height="2" id="svg_13"/>
  <rect fill="#000000" stroke="#000" stroke-width="0" x="5" y="18.00214" width="1" height="1" id="svg_14"/>
  <g id="svg_46">
   <g id="svg_44">
    <rect fill="#ffffff" stroke="#000" stroke-width="0" x="7" y="22.00214" width="7" height="3" id="svg_42"/>
    <rect fill="#ffffff" stroke="#000" stroke-width="0" x="8" y="21.00214" width="5" height="2" id="svg_43"/>
   </g>
   <g id="svg_45">
    <g id="svg_38">
     <rect fill="#fe7677" stroke="#000" stroke-width="0" x="6.0382" y="23.00214" width="2" height="2" id="svg_36"/>
     <rect fill="#fe7677" stroke="#000" stroke-width="0" x="5.0382" y="24.00214" width="4" height="1" id="svg_37"/>
    </g>
    <g id="svg_41">
     <rect fill="#fe7677" stroke="#000" stroke-width="0" x="13" y="23.00214" width="2" height="2" id="svg_39"/>
     <rect fill="#fe7677" stroke="#000" stroke-width="0" x="12" y="24.00214" width="4" height="1" id="svg_40"/>
    </g>
   </g>
  </g>
  <g id="svg_49">
   <g id="svg_26">
    <rect fill="#ffffff" stroke="#000" stroke-width="0" x="8" y="14.00214" width="2" height="5" id="svg_15"/>
    <rect fill="#ffffff" stroke="#000" stroke-width="0" x="7" y="15.00214" width="2" height="3" id="svg_16"/>
    <rect fill="#000000" stroke="#000" stroke-width="0" x="9" y="15.00214" width="1" height="3" id="svg_22"/>
   </g>
   <g id="svg_27">
    <rect transform="rotate(-180 13 16.4639)" fill="#ffffff" stroke="#000" stroke-width="0" x="12" y="13.96395" width="2" height="5" id="svg_19"/>
    <rect transform="rotate(-180 14 16.4639)" fill="#ffffff" stroke="#000" stroke-width="0" x="13" y="14.96395" width="2" height="3" id="svg_20"/>
    <rect fill="#000000" stroke="#000" stroke-width="0" x="12" y="14.96395" width="1" height="3" id="svg_23"/>
   </g>
  </g>
  <g id="svg_51">
   <rect fill="#ffffff" stroke="#000" stroke-width="0" x="3" y="19.00214" width="3" height="3" id="svg_29"/>
   <g id="svg_50">
    <rect fill="#fe7677" stroke="#000" stroke-width="0" x="4" y="21.00214" width="2" height="2" id="svg_35"/>
    <rect fill="#fe7677" stroke="#000" stroke-width="0" x="4" y="20.00214" width="3" height="2" id="svg_31"/>
   </g>
  </g>
  <rect fill="#000000" stroke="#000" stroke-width="0" x="6" y="19.00214" width="9" height="1" id="svg_28"/>
  <rect fill="#fe7677" stroke="#000" stroke-width="0" x="3" y="21.00214" width="2" height="1" id="svg_32"/>
  <rect fill="#fe7677" stroke-width="0" x="15" y="18.00214" width="2" height="6" id="svg_54" stroke="#000"/>
  <rect fill="#fe7677" stroke="#000" stroke-width="0" x="16" y="18.00214" width="2" height="3" id="svg_55"/>
  <g id="svg_105">
   <g id="svg_103">
    <rect fill="#ffabab" stroke="#000" stroke-width="0" x="15" y="9.00214" width="2" height="10" id="svg_3"/>
    <g id="svg_67" stroke="null">
     <rect fill="#ffab01" stroke-width="0" x="14.9618" y="23.32019" width="0.68169" height="0.68169" id="svg_61" stroke="#000"/>
     <rect fill="#ea5b05" stroke-width="0" x="16.32518" y="22.67168" width="0.68169" height="0.68169" id="svg_62" stroke="#000"/>
     <rect fill="#ea5b05" stroke-width="0" x="15.64349" y="23.32733" width="0.68169" height="0.68169" id="svg_63" stroke="#000"/>
     <rect fill="#ffab01" stroke-width="0" x="16.31804" y="23.32733" width="0.68169" height="0.68169" id="svg_65" stroke="#000"/>
    </g>
    <g id="svg_68">
     <rect fill="#ffab01" stroke-width="0" x="15" y="17.34592" width="0.65623" height="0.65623" id="svg_57" stroke="#000"/>
     <rect fill="#ffab01" stroke-width="0" x="16.31245" y="17.37098" width="0.65623" height="0.65623" id="svg_58" stroke="#000"/>
     <rect fill="#ffab01" stroke-width="0" x="15.65623" y="17.96395" width="0.65623" height="0.65623" id="svg_59" stroke="#000"/>
    </g>
    <rect fill="#000000" stroke="#000" stroke-width="0" x="15.54163" y="10.00214" width="1" height="1" id="svg_4"/>
   </g>
   <rect fill="#ffab01" stroke="#000" stroke-width="0" x="0.9618" y="8.00214" width="29" height="2" id="svg_2"/>
   <rect fill="#ffabab" stroke="#000" stroke-width="0" width="31" height="9" id="svg_1" y="0.00214" x="0"/>
   <g id="svg_101">
    <g id="svg_82">
     <g id="svg_81">
      <rect fill="#000000" stroke="#000" stroke-width="0" x="0.9618" y="1.04034" width="2" height="7" id="svg_69"/>
      <rect fill="#000000" stroke="#000" stroke-width="0" x="1.9618" y="1.04034" width="5" height="1" id="svg_70"/>
      <rect fill="#000000" stroke="#000" stroke-width="0" x="5.9618" y="2.04034" width="2" height="3" id="svg_72"/>
      <rect fill="#000000" stroke="#000" stroke-width="0" x="4.9618" y="4.04034" width="1" height="3" id="svg_74"/>
      <rect fill="#000000" stroke="#000" stroke-width="0" x="1.9618" y="5.04034" width="4" height="1" id="svg_75"/>
      <rect fill="#000000" stroke="#000" stroke-width="0" x="5" y="6.04034" width="2" height="2" id="svg_78"/>
      <rect fill="#000000" stroke="#000" stroke-width="0" x="6" y="7.04034" width="2" height="1" id="svg_79"/>
      <rect fill="#000000" stroke="#000" stroke-width="0" x="3.9618" y="5.04034" width="2" height="2" id="svg_80"/>
     </g>
     <rect fill="#000000" stroke-width="0" x="6.0382" y="1.04034" width="1" height="4" id="svg_71" stroke="#000"/>
     <rect fill="#000000" stroke="#000" stroke-width="0" x="5.0382" y="4.04034" width="2" height="1" id="svg_73"/>
     <rect fill="#000000" stroke="#000" stroke-width="0" x="4.0382" y="6.04034" width="3" height="1" id="svg_77"/>
    </g>
    <g id="svg_94">
     <g id="svg_89">
      <rect fill="#000000" stroke="#000" stroke-width="0" x="8.9618" y="2.04034" width="2" height="5" id="svg_83"/>
      <rect fill="#000000" stroke="#000" stroke-width="0" x="9.9618" y="1.04034" width="1" height="7" id="svg_84"/>
      <rect fill="#000000" stroke="#000" stroke-width="0" x="9.9618" y="1.04034" width="5" height="1" id="svg_85"/>
     </g>
     <g transform="rotate(-180 12.9618 4.54034)" id="svg_93">
      <rect fill="#000000" stroke="#000" stroke-width="0" x="9.9618" y="2.04034" width="2" height="5" id="svg_90"/>
      <rect fill="#000000" stroke="#000" stroke-width="0" x="10.9618" y="1.04034" width="1" height="7" id="svg_91"/>
      <rect fill="#000000" stroke="#000" stroke-width="0" x="10.9618" y="1.04034" width="5" height="1" id="svg_92"/>
     </g>
    </g>
    <g id="svg_97">
     <rect fill="#000000" stroke="#000" stroke-width="0" x="16.9618" y="1.04034" width="2" height="7" id="svg_95"/>
     <rect fill="#000000" stroke="#000" stroke-width="0" x="17.9618" y="7.04034" width="5" height="1" id="svg_96"/>
    </g>
    <g id="svg_100">
     <rect fill="#000000" stroke="#000" stroke-width="0" x="23.9618" y="1.04034" width="2" height="7" id="svg_98"/>
     <rect fill="#000000" stroke="#000" stroke-width="0" x="24.9618" y="7.04034" width="5" height="1" id="svg_99"/>
    </g>
   </g>
  </g>
 </g>

</svg>