<svg width="110" height="110" xmlns="http://www.w3.org/2000/svg">
 <g id="Layer_1">
  <title>Layer 1</title>
  <g id="svg_309">
   <rect id="svg_865" height="2" width="94" y="0" x="8" stroke-width="0" stroke="#000" fill="#ffffff"/>
   <rect id="svg_867" height="94" width="2" y="7.87326" x="0" stroke-width="0" stroke="#000" fill="#ffffff"/>
   <rect id="svg_868" height="2" width="94" y="108" x="8" stroke-width="0" stroke="#000" fill="#ffffff"/>
   <rect id="svg_869" height="94" width="2" y="8" x="108" stroke-width="0" stroke="#000" fill="#ffffff"/>
   <rect id="svg_870" height="2" width="3" y="1" x="6" stroke-width="0" stroke="#000" fill="#ffffff"/>
   <rect id="svg_872" height="3" width="2" y="6" x="1" stroke-width="0" stroke="#000" fill="#ffffff"/>
   <rect id="svg_874" height="2" width="2" y="5" x="2" stroke-width="0" stroke="#000" fill="#ffffff"/>
   <rect id="svg_875" height="2" width="2" y="4" x="3" stroke-width="0" stroke="#000" fill="#ffffff"/>
   <rect id="svg_876" height="2" width="2" y="3" x="4" stroke-width="0" stroke="#000" fill="#ffffff"/>
   <rect id="svg_877" height="2" width="2" y="2" x="5" stroke-width="0" stroke="#000" fill="#ffffff"/>
   <rect id="svg_878" height="2" width="3" y="1" x="101" stroke-width="0" stroke="#000" fill="#ffffff"/>
   <rect id="svg_879" height="2" width="2" y="2" x="103" stroke-width="0" stroke="#000" fill="#ffffff"/>
   <rect id="svg_880" height="2" width="2" y="3" x="104" stroke-width="0" stroke="#000" fill="#ffffff"/>
   <rect id="svg_881" height="2" width="2" y="4" x="105" stroke-width="0" stroke="#000" fill="#ffffff"/>
   <rect id="svg_882" height="2" width="2" y="5" x="106" stroke-width="0" stroke="#000" fill="#ffffff"/>
   <rect id="svg_883" height="3" width="2" y="6" x="107" stroke-width="0" stroke="#000" fill="#ffffff"/>
   <rect id="svg_884" height="3" width="2" y="101" x="1" stroke-width="0" stroke="#000" fill="#ffffff"/>
   <rect id="svg_885" height="2" width="2" y="103" x="2" stroke-width="0" stroke="#000" fill="#ffffff"/>
   <rect id="svg_886" height="2" width="2" y="104" x="3" stroke-width="0" stroke="#000" fill="#ffffff"/>
   <rect id="svg_887" height="2" width="2" y="105" x="4" stroke-width="0" stroke="#000" fill="#ffffff"/>
   <rect id="svg_888" height="2" width="2" y="106" x="5" stroke-width="0" stroke="#000" fill="#ffffff"/>
   <rect id="svg_889" height="2" width="3" y="107" x="6" stroke-width="0" stroke="#000" fill="#ffffff"/>
   <rect id="svg_890" height="2" width="3" y="107" x="101" stroke-width="0" stroke="#000" fill="#ffffff"/>
   <rect id="svg_891" height="2" width="2" y="106" x="103" stroke-width="0" stroke="#000" fill="#ffffff"/>
   <rect id="svg_892" height="2" width="2" y="105" x="104" stroke-width="0" stroke="#000" fill="#ffffff"/>
   <rect id="svg_893" height="2" width="2" y="104" x="105" stroke-width="0" stroke="#000" fill="#ffffff"/>
   <rect id="svg_894" height="2" width="2" y="103" x="106" stroke-width="0" stroke="#000" fill="#ffffff"/>
   <rect id="svg_895" height="3" width="2" y="101" x="107" stroke-width="0" stroke="#000" fill="#ffffff"/>
  </g>
  <rect id="svg_871" height="0.07911" width="0" y="-13.86076" x="67.78481" stroke-width="0" stroke="#000" fill="#ffffff"/>
  <g id="svg_192">
   <g id="svg_139">
    <rect fill="#07ff07" stroke="#000" stroke-width="0" x="50" y="57" width="10" height="5" id="svg_97"/>
    <g id="svg_100">
     <rect fill="#fbfe00" stroke="#000" stroke-width="0" x="54" y="49.0382" width="2" height="2" id="svg_98"/>
     <rect fill="#fbfe00" stroke="#000" stroke-width="0" x="54" y="48" width="1" height="2" id="svg_99"/>
    </g>
    <rect fill="#07ff07" stroke="#000" stroke-width="0" x="53" y="50" width="4" height="2" id="svg_101"/>
    <rect fill="#07ff07" stroke="#000" stroke-width="0" x="51" y="51" width="8" height="3" id="svg_102"/>
    <rect fill="#07ff07" stroke="#000" stroke-width="0" x="50" y="53" width="10" height="3" id="svg_103"/>
    <rect fill="#07ff07" stroke="#000" stroke-width="0" x="49" y="55" width="12" height="2" id="svg_104"/>
    <g id="svg_107">
     <rect id="svg_105" height="2" width="2" y="55" x="50" stroke-width="0" stroke="#000" fill="#fbfe00"/>
     <rect fill="#fbfe00" stroke="#000" stroke-width="0" x="51" y="54" width="1" height="3" id="svg_106"/>
    </g>
    <rect fill="#000000" stroke="#000" stroke-width="0" x="50" y="56" width="1" height="1" id="svg_108"/>
    <g id="svg_111">
     <rect fill="#ffffff" stroke="#000" stroke-width="0" x="51" y="59.9704" width="7" height="3" id="svg_109"/>
     <rect fill="#ffffff" stroke="#000" stroke-width="0" x="52" y="58.9704" width="5" height="2" id="svg_110"/>
    </g>
    <rect fill="#000000" stroke="#000" stroke-width="0" x="51" y="57" width="10" height="1" id="svg_112"/>
    <g id="svg_121">
     <g id="svg_116">
      <rect fill="#ffffff" stroke="#000" stroke-width="0" x="53" y="52" width="2" height="5" id="svg_113"/>
      <rect fill="#ffffff" stroke="#000" stroke-width="0" x="52" y="53" width="2" height="3" id="svg_114"/>
      <rect fill="#000000" stroke="#000" stroke-width="0" x="54" y="52" width="1" height="3" id="svg_115"/>
     </g>
     <g id="svg_120">
      <rect transform="rotate(-180 57 54.4618)" fill="#ffffff" stroke="#000" stroke-width="0" x="56" y="51.96181" width="2" height="5" id="svg_117"/>
      <rect transform="rotate(-180 58 54.4618)" fill="#ffffff" stroke="#000" stroke-width="0" x="57" y="52.96181" width="2" height="3" id="svg_118"/>
      <rect fill="#000000" stroke="#000" stroke-width="0" x="56" y="51.9704" width="1" height="3" id="svg_119"/>
     </g>
    </g>
    <g id="svg_124">
     <rect id="svg_122" height="2" width="2" y="55" x="59" stroke-width="0" stroke="#000" fill="#fbfe00"/>
     <rect id="svg_123" height="2" width="1" y="54" x="59" stroke-width="0" stroke="#000" fill="#fbfe00"/>
    </g>
    <g id="svg_128">
     <rect fill="#fe7677" stroke="#000" stroke-width="0" x="48" y="59" width="3" height="1" id="svg_125"/>
     <rect id="svg_126" height="2" width="1" y="58" x="48" stroke-width="0" stroke="#000" fill="#fe7677"/>
     <rect id="svg_127" height="2" width="1" y="59" x="49" stroke-width="0" stroke="#000" fill="#fe7677"/>
    </g>
    <rect fill="#fe7677" stroke="#000" stroke-width="0" x="59" y="59" width="4" height="1" id="svg_129"/>
    <rect id="svg_130" height="3" width="2" y="58" x="60" stroke-width="0" stroke="#000" fill="#fe7677"/>
    <g id="svg_138">
     <g id="svg_133">
      <rect fill="#fe7677" stroke="#000" stroke-width="0" x="57" y="61" width="2" height="2" id="svg_131"/>
      <rect fill="#fe7677" stroke="#000" stroke-width="0" x="56" y="62" width="4" height="1" id="svg_132"/>
     </g>
     <g id="svg_137">
      <rect fill="#fe7677" stroke="#000" stroke-width="0" x="50" y="61" width="2" height="2" id="svg_134"/>
      <rect fill="#fe7677" stroke="#000" stroke-width="0" x="49" y="62" width="4" height="1" id="svg_135"/>
      <rect fill="#fe7677" stroke="#000" stroke-width="0" x="50" y="62" width="3" height="2" id="svg_136"/>
     </g>
    </g>
   </g>
   <g id="svg_154">
    <g id="svg_142">
     <rect id="svg_140" height="2" width="1" y="61" x="63" stroke-width="0" stroke="#000" fill="#ffffff"/>
     <rect id="svg_141" height="1" width="2" y="62" x="62" stroke-width="0" stroke="#000" fill="#ffffff"/>
    </g>
    <g id="svg_148">
     <rect id="svg_143" height="1" width="2" y="64" x="60" stroke-width="0" stroke="#000" fill="#ffffff"/>
     <rect id="svg_144" height="2" width="1" y="64" x="60" stroke-width="0" stroke="#000" fill="#ffffff"/>
     <rect id="svg_145" height="1" width="2" y="65" x="59" stroke-width="0" stroke="#000" fill="#ffffff"/>
     <rect id="svg_146" height="2" width="1" y="65" x="59" stroke-width="0" stroke="#000" fill="#ffffff"/>
     <rect id="svg_147" height="1" width="2" y="66" x="58" stroke-width="0" stroke="#000" fill="#ffffff"/>
    </g>
    <rect id="svg_149" height="2" width="3" y="43" x="50" stroke-width="0" stroke="#000" fill="#ffffff"/>
    <g id="svg_153">
     <rect id="svg_150" height="2" width="2" y="45" x="47" stroke-width="0" stroke="#000" fill="#ffffff"/>
     <rect id="svg_151" height="2" width="2" y="46" x="46" stroke-width="0" stroke="#000" fill="#ffffff"/>
     <rect id="svg_152" height="2" width="2" y="47" x="45" stroke-width="0" stroke="#000" fill="#ffffff"/>
    </g>
   </g>
   <g id="svg_191">
    <rect id="svg_155" height="1" width="2" y="67" x="61" stroke-width="0" stroke="#000" fill="#ffffff"/>
    <rect id="svg_156" height="1" width="1" y="66" x="63.03588" stroke-width="0" stroke="#000" fill="#ffffff"/>
    <rect id="svg_157" height="1" width="1" y="65" x="64" stroke-width="0" stroke="#000" fill="#ffffff"/>
    <rect id="svg_158" height="1" width="1" y="64" x="65" stroke-width="0" stroke="#000" fill="#ffffff"/>
    <rect id="svg_159" height="2" width="1" y="62" x="66" stroke-width="0" stroke="#000" fill="#ffffff"/>
    <rect id="svg_160" height="2" width="1" y="60" x="67" stroke-width="0" stroke="#000" fill="#ffffff"/>
    <rect id="svg_161" height="3" width="1" y="57" x="68" stroke-width="0" stroke="#000" fill="#ffffff"/>
    <rect id="svg_162" height="4" width="1" y="53" x="69" stroke-width="0" stroke="#000" fill="#ffffff"/>
    <rect id="svg_163" height="3" width="1" y="50" x="68" stroke-width="0" stroke="#000" fill="#ffffff"/>
    <rect id="svg_164" height="2" width="1" y="48" x="67" stroke-width="0" stroke="#000" fill="#ffffff"/>
    <rect id="svg_165" height="2" width="1" y="46" x="66" stroke-width="0" stroke="#000" fill="#ffffff"/>
    <rect id="svg_166" height="1" width="1" y="45" x="65" stroke-width="0" stroke="#000" fill="#ffffff"/>
    <rect id="svg_167" height="1" width="1" y="44" x="64" stroke-width="0" stroke="#000" fill="#ffffff"/>
    <rect id="svg_168" height="1" width="1" y="43" x="63" stroke-width="0" stroke="#000" fill="#ffffff"/>
    <rect id="svg_169" height="1" width="2" y="42" x="61" stroke-width="0" stroke="#000" fill="#ffffff"/>
    <rect id="svg_170" height="1" width="3" y="41" x="58" stroke-width="0" stroke="#000" fill="#ffffff"/>
    <rect y="40" id="svg_171" height="1" width="6" x="52" stroke-width="0" stroke="#000" fill="#ffffff"/>
    <rect id="svg_172" height="1" width="3" y="41" x="49" stroke-width="0" stroke="#000" fill="#ffffff"/>
    <rect id="svg_173" height="1" width="2" y="42" x="47" stroke-width="0" stroke="#000" fill="#ffffff"/>
    <rect id="svg_174" height="1" width="1" y="43" x="46" stroke-width="0" stroke="#000" fill="#ffffff"/>
    <rect id="svg_175" height="1" width="1" y="44" x="45" stroke-width="0" stroke="#000" fill="#ffffff"/>
    <rect id="svg_176" height="1" width="1" y="45" x="44" stroke-width="0" stroke="#000" fill="#ffffff"/>
    <rect id="svg_177" height="2" width="1" y="46" x="43" stroke-width="0" stroke="#000" fill="#ffffff"/>
    <rect id="svg_178" height="2" width="1" y="48" x="42" stroke-width="0" stroke="#000" fill="#ffffff"/>
    <rect id="svg_179" height="3" width="1" y="50" x="41" stroke-width="0" stroke="#000" fill="#ffffff"/>
    <rect id="svg_180" height="4" width="1" y="53" x="40" stroke-width="0" stroke="#000" fill="#ffffff"/>
    <rect id="svg_181" height="3" width="1" y="57" x="41" stroke-width="0" stroke="#000" fill="#ffffff"/>
    <rect id="svg_182" height="2" width="1" y="60" x="42" stroke-width="0" stroke="#000" fill="#ffffff"/>
    <rect id="svg_183" height="2" width="1" y="62" x="43" stroke-width="0" stroke="#000" fill="#ffffff"/>
    <rect id="svg_184" height="1" width="1" y="64" x="44" stroke-width="0" stroke="#000" fill="#ffffff"/>
    <rect id="svg_185" height="1" width="1" y="65" x="45" stroke-width="0" stroke="#000" fill="#ffffff"/>
    <rect id="svg_186" height="1" width="1" y="66" x="46" stroke-width="0" stroke="#000" fill="#ffffff"/>
    <rect id="svg_187" height="1" width="2" y="67" x="47" stroke-width="0" stroke="#000" fill="#ffffff"/>
    <rect id="svg_188" height="1" width="3" y="68" x="49" stroke-width="0" stroke="#000" fill="#ffffff"/>
    <rect id="svg_189" height="1" width="6" y="69" x="52" stroke-width="0" stroke="#000" fill="#ffffff"/>
    <rect id="svg_190" height="1" width="3" y="68" x="58" stroke-width="0" stroke="#000" fill="#ffffff"/>
   </g>
  </g>
  <rect fill="#ffffff" stroke="#000" stroke-width="0" x="-5" y="-4" width="120" height="120" id="svg_289" opacity="0.5"/>
  <g opacity="0.5" id="svg_308">
   <rect fill="#000000" stroke="#000" stroke-width="0" x="47.5" y="22" width="15" height="6" id="svg_290"/>
   <rect fill="#000000" stroke="#000" stroke-width="0" x="44.5" y="25" width="6" height="6" id="svg_292"/>
   <rect fill="#000000" stroke="#000" stroke-width="0" x="59.5" y="25" width="6" height="6" id="svg_293"/>
   <rect fill="#000000" stroke="#000" stroke-width="0" x="62.5" y="28" width="6" height="6" id="svg_294"/>
   <rect fill="#000000" stroke="#000" stroke-width="0" x="41.5" y="28" width="6" height="6" id="svg_295"/>
   <rect fill="#000000" stroke="#000" stroke-width="0" x="38.5" y="34" width="6" height="15" id="svg_296"/>
   <rect fill="#000000" stroke="#000" stroke-width="0" x="41.5" y="32" width="3" height="4" id="svg_297"/>
   <rect fill="#000000" stroke="#000" stroke-width="0" x="65.5" y="32" width="3" height="4" id="svg_298"/>
   <rect fill="#000000" stroke="#000" stroke-width="0" x="65.5" y="34" width="6" height="15" id="svg_299"/>
   <rect fill="#000000" stroke="#000" stroke-width="0" x="32.5" y="46" width="45" height="18" id="svg_300"/>
   <rect fill="#000000" stroke="#000" stroke-width="0" x="32.5" y="63" width="18" height="25" id="svg_301"/>
   <rect fill="#000000" stroke="#000" stroke-width="0" x="59.5" y="63" width="18" height="25" id="svg_302"/>
   <rect fill="#000000" stroke="#000" stroke-width="0" x="29.5" y="49" width="6" height="39" id="svg_303"/>
   <rect fill="#000000" stroke="#000" stroke-width="0" x="74.5" y="49" width="6" height="39" id="svg_304"/>
   <rect fill="#000000" stroke="#000" stroke-width="0" x="49.5" y="79" width="11" height="9" id="svg_305"/>
   <rect fill="#000000" stroke="#000" stroke-width="0" x="47.5" y="73" width="6" height="12" id="svg_306"/>
   <rect fill="#000000" stroke="#000" stroke-width="0" x="56.5" y="73" width="6" height="12" id="svg_307"/>
  </g>
 </g>

</svg>