<svg width="110" height="110" xmlns="http://www.w3.org/2000/svg">
 <g id="Layer_1">
  <title>Layer 1</title>
  <rect fill="#ffffff" stroke="#000" stroke-width="0" x="67.78481" y="-13.86076" width="0" height="0.07911" id="svg_871"/>
  <rect fill="#ffffff" stroke="#000" stroke-width="0" x="8" y="0" width="94" height="2" id="svg_865"/>
  <rect fill="#ffffff" stroke="#000" stroke-width="0" x="0" y="7.87326" width="2" height="94" id="svg_867"/>
  <rect fill="#ffffff" stroke="#000" stroke-width="0" x="8" y="108" width="94" height="2" id="svg_868"/>
  <rect fill="#ffffff" stroke="#000" stroke-width="0" x="108" y="8" width="2" height="94" id="svg_869"/>
  <rect fill="#ffffff" stroke="#000" stroke-width="0" x="6" y="1" width="3" height="2" id="svg_870"/>
  <rect fill="#ffffff" stroke="#000" stroke-width="0" x="1" y="6" width="2" height="3" id="svg_872"/>
  <rect fill="#ffffff" stroke="#000" stroke-width="0" x="2" y="5" width="2" height="2" id="svg_874"/>
  <rect fill="#ffffff" stroke="#000" stroke-width="0" x="3" y="4" width="2" height="2" id="svg_875"/>
  <rect fill="#ffffff" stroke="#000" stroke-width="0" x="4" y="3" width="2" height="2" id="svg_876"/>
  <rect fill="#ffffff" stroke="#000" stroke-width="0" x="5" y="2" width="2" height="2" id="svg_877"/>
  <rect fill="#ffffff" stroke="#000" stroke-width="0" x="101" y="1" width="3" height="2" id="svg_878"/>
  <rect fill="#ffffff" stroke="#000" stroke-width="0" x="103" y="2" width="2" height="2" id="svg_879"/>
  <rect fill="#ffffff" stroke="#000" stroke-width="0" x="104" y="3" width="2" height="2" id="svg_880"/>
  <rect fill="#ffffff" stroke="#000" stroke-width="0" x="105" y="4" width="2" height="2" id="svg_881"/>
  <rect fill="#ffffff" stroke="#000" stroke-width="0" x="106" y="5" width="2" height="2" id="svg_882"/>
  <rect fill="#ffffff" stroke="#000" stroke-width="0" x="107" y="6" width="2" height="3" id="svg_883"/>
  <rect fill="#ffffff" stroke="#000" stroke-width="0" x="1" y="101" width="2" height="3" id="svg_884"/>
  <rect fill="#ffffff" stroke="#000" stroke-width="0" x="2" y="103" width="2" height="2" id="svg_885"/>
  <rect fill="#ffffff" stroke="#000" stroke-width="0" x="3" y="104" width="2" height="2" id="svg_886"/>
  <rect fill="#ffffff" stroke="#000" stroke-width="0" x="4" y="105" width="2" height="2" id="svg_887"/>
  <rect fill="#ffffff" stroke="#000" stroke-width="0" x="5" y="106" width="2" height="2" id="svg_888"/>
  <rect fill="#ffffff" stroke="#000" stroke-width="0" x="6" y="107" width="3" height="2" id="svg_889"/>
  <rect fill="#ffffff" stroke="#000" stroke-width="0" x="101" y="107" width="3" height="2" id="svg_890"/>
  <rect fill="#ffffff" stroke="#000" stroke-width="0" x="103" y="106" width="2" height="2" id="svg_891"/>
  <rect fill="#ffffff" stroke="#000" stroke-width="0" x="104" y="105" width="2" height="2" id="svg_892"/>
  <rect fill="#ffffff" stroke="#000" stroke-width="0" x="105" y="104" width="2" height="2" id="svg_893"/>
  <rect fill="#ffffff" stroke="#000" stroke-width="0" x="106" y="103" width="2" height="2" id="svg_894"/>
  <rect fill="#ffffff" stroke="#000" stroke-width="0" x="107" y="101" width="2" height="3" id="svg_895"/>
  <g id="svg_192">
   <g id="svg_139">
    <rect id="svg_97" height="5" width="10" y="56.79593" x="50" stroke-width="0" stroke="#000" fill="#07ff07"/>
    <g id="svg_100">
     <rect id="svg_98" height="2" width="2" y="48.83413" x="54" stroke-width="0" stroke="#000" fill="#fbfe00"/>
     <rect id="svg_99" height="2" width="1" y="47.79593" x="54" stroke-width="0" stroke="#000" fill="#fbfe00"/>
    </g>
    <rect id="svg_101" height="2" width="4" y="49.79593" x="53" stroke-width="0" stroke="#000" fill="#07ff07"/>
    <rect id="svg_102" height="3" width="8" y="50.79593" x="51" stroke-width="0" stroke="#000" fill="#07ff07"/>
    <rect id="svg_103" height="3" width="10" y="52.79593" x="50" stroke-width="0" stroke="#000" fill="#07ff07"/>
    <rect id="svg_104" height="2" width="12" y="54.79593" x="49" stroke-width="0" stroke="#000" fill="#07ff07"/>
    <g id="svg_107">
     <rect fill="#fbfe00" stroke="#000" stroke-width="0" x="50" y="54.79593" width="2" height="2" id="svg_105"/>
     <rect id="svg_106" height="3" width="1" y="53.79593" x="51" stroke-width="0" stroke="#000" fill="#fbfe00"/>
    </g>
    <rect id="svg_108" height="1" width="1" y="55.79593" x="50" stroke-width="0" stroke="#000" fill="#000000"/>
    <g id="svg_111">
     <rect id="svg_109" height="3" width="7" y="59.76633" x="51" stroke-width="0" stroke="#000" fill="#ffffff"/>
     <rect id="svg_110" height="2" width="5" y="58.76633" x="52" stroke-width="0" stroke="#000" fill="#ffffff"/>
    </g>
    <rect id="svg_112" height="1" width="10" y="56.79593" x="51" stroke-width="0" stroke="#000" fill="#000000"/>
    <g id="svg_121">
     <g id="svg_116">
      <rect id="svg_113" height="5" width="2" y="51.79593" x="53" stroke-width="0" stroke="#000" fill="#ffffff"/>
      <rect id="svg_114" height="3" width="2" y="52.79593" x="52" stroke-width="0" stroke="#000" fill="#ffffff"/>
      <rect id="svg_115" height="3" width="1" y="51.79593" x="54" stroke-width="0" stroke="#000" fill="#000000"/>
     </g>
     <g id="svg_120">
      <rect transform="rotate(-180 57 54.2577)" id="svg_117" height="5" width="2" y="51.75774" x="56" stroke-width="0" stroke="#000" fill="#ffffff"/>
      <rect transform="rotate(-180 58 54.2577)" id="svg_118" height="3" width="2" y="52.75774" x="57" stroke-width="0" stroke="#000" fill="#ffffff"/>
      <rect id="svg_119" height="3" width="1" y="51.76633" x="56" stroke-width="0" stroke="#000" fill="#000000"/>
     </g>
    </g>
    <g id="svg_124">
     <rect fill="#fbfe00" stroke="#000" stroke-width="0" x="59" y="54.79593" width="2" height="2" id="svg_122"/>
     <rect fill="#fbfe00" stroke="#000" stroke-width="0" x="59" y="53.79593" width="1" height="2" id="svg_123"/>
    </g>
    <g id="svg_128">
     <rect id="svg_125" height="1" width="3" y="58.79593" x="48" stroke-width="0" stroke="#000" fill="#fe7677"/>
     <rect fill="#fe7677" stroke="#000" stroke-width="0" x="48" y="57.79593" width="1" height="2" id="svg_126"/>
     <rect fill="#fe7677" stroke="#000" stroke-width="0" x="49" y="58.79593" width="1" height="2" id="svg_127"/>
    </g>
    <rect id="svg_129" height="1" width="4" y="58.79593" x="59" stroke-width="0" stroke="#000" fill="#fe7677"/>
    <rect fill="#fe7677" stroke="#000" stroke-width="0" x="60" y="57.79593" width="2" height="3" id="svg_130"/>
    <g id="svg_138">
     <g id="svg_133">
      <rect id="svg_131" height="2" width="2" y="60.79593" x="57" stroke-width="0" stroke="#000" fill="#fe7677"/>
      <rect id="svg_132" height="1" width="4" y="61.79593" x="56" stroke-width="0" stroke="#000" fill="#fe7677"/>
     </g>
     <g id="svg_137">
      <rect id="svg_134" height="2" width="2" y="60.79593" x="50" stroke-width="0" stroke="#000" fill="#fe7677"/>
      <rect id="svg_135" height="1" width="4" y="61.79593" x="49" stroke-width="0" stroke="#000" fill="#fe7677"/>
      <rect id="svg_136" height="2" width="3" y="61.79593" x="50" stroke-width="0" stroke="#000" fill="#fe7677"/>
     </g>
    </g>
   </g>
   <g id="svg_154">
    <g id="svg_142">
     <rect fill="#ffffff" stroke="#000" stroke-width="0" x="63" y="60.79593" width="1" height="2" id="svg_140"/>
     <rect fill="#ffffff" stroke="#000" stroke-width="0" x="62" y="61.79593" width="2" height="1" id="svg_141"/>
    </g>
    <g id="svg_148">
     <rect fill="#ffffff" stroke="#000" stroke-width="0" x="60" y="63.79593" width="2" height="1" id="svg_143"/>
     <rect fill="#ffffff" stroke="#000" stroke-width="0" x="60" y="63.79593" width="1" height="2" id="svg_144"/>
     <rect fill="#ffffff" stroke="#000" stroke-width="0" x="59" y="64.79593" width="2" height="1" id="svg_145"/>
     <rect fill="#ffffff" stroke="#000" stroke-width="0" x="59" y="64.79593" width="1" height="2" id="svg_146"/>
     <rect fill="#ffffff" stroke="#000" stroke-width="0" x="58" y="65.79593" width="2" height="1" id="svg_147"/>
    </g>
    <rect fill="#ffffff" stroke="#000" stroke-width="0" x="50" y="42.79593" width="3" height="2" id="svg_149"/>
    <g id="svg_153">
     <rect fill="#ffffff" stroke="#000" stroke-width="0" x="47" y="44.79593" width="2" height="2" id="svg_150"/>
     <rect fill="#ffffff" stroke="#000" stroke-width="0" x="46" y="45.79593" width="2" height="2" id="svg_151"/>
     <rect fill="#ffffff" stroke="#000" stroke-width="0" x="45" y="46.79593" width="2" height="2" id="svg_152"/>
    </g>
   </g>
   <g id="svg_191">
    <rect fill="#ffffff" stroke="#000" stroke-width="0" x="61" y="66.79593" width="2" height="1" id="svg_155"/>
    <rect fill="#ffffff" stroke="#000" stroke-width="0" x="63.03588" y="65.79593" width="1" height="1" id="svg_156"/>
    <rect fill="#ffffff" stroke="#000" stroke-width="0" x="64" y="64.79593" width="1" height="1" id="svg_157"/>
    <rect fill="#ffffff" stroke="#000" stroke-width="0" x="65" y="63.79593" width="1" height="1" id="svg_158"/>
    <rect fill="#ffffff" stroke="#000" stroke-width="0" x="66" y="61.79593" width="1" height="2" id="svg_159"/>
    <rect fill="#ffffff" stroke="#000" stroke-width="0" x="67" y="59.79593" width="1" height="2" id="svg_160"/>
    <rect fill="#ffffff" stroke="#000" stroke-width="0" x="68" y="56.79593" width="1" height="3" id="svg_161"/>
    <rect fill="#ffffff" stroke="#000" stroke-width="0" x="69" y="52.79593" width="1" height="4" id="svg_162"/>
    <rect fill="#ffffff" stroke="#000" stroke-width="0" x="68" y="49.79593" width="1" height="3" id="svg_163"/>
    <rect fill="#ffffff" stroke="#000" stroke-width="0" x="67" y="47.79593" width="1" height="2" id="svg_164"/>
    <rect fill="#ffffff" stroke="#000" stroke-width="0" x="66" y="45.79593" width="1" height="2" id="svg_165"/>
    <rect fill="#ffffff" stroke="#000" stroke-width="0" x="65" y="44.79593" width="1" height="1" id="svg_166"/>
    <rect fill="#ffffff" stroke="#000" stroke-width="0" x="64" y="43.79593" width="1" height="1" id="svg_167"/>
    <rect fill="#ffffff" stroke="#000" stroke-width="0" x="63" y="42.79593" width="1" height="1" id="svg_168"/>
    <rect fill="#ffffff" stroke="#000" stroke-width="0" x="61" y="41.79593" width="2" height="1" id="svg_169"/>
    <rect fill="#ffffff" stroke="#000" stroke-width="0" x="58" y="40.79593" width="3" height="1" id="svg_170"/>
    <rect fill="#ffffff" stroke="#000" stroke-width="0" x="52" width="6" height="1" id="svg_171" y="39.79593"/>
    <rect fill="#ffffff" stroke="#000" stroke-width="0" x="49" y="40.79593" width="3" height="1" id="svg_172"/>
    <rect fill="#ffffff" stroke="#000" stroke-width="0" x="47" y="41.79593" width="2" height="1" id="svg_173"/>
    <rect fill="#ffffff" stroke="#000" stroke-width="0" x="46" y="42.79593" width="1" height="1" id="svg_174"/>
    <rect fill="#ffffff" stroke="#000" stroke-width="0" x="45" y="43.79593" width="1" height="1" id="svg_175"/>
    <rect fill="#ffffff" stroke="#000" stroke-width="0" x="44" y="44.79593" width="1" height="1" id="svg_176"/>
    <rect fill="#ffffff" stroke="#000" stroke-width="0" x="43" y="45.79593" width="1" height="2" id="svg_177"/>
    <rect fill="#ffffff" stroke="#000" stroke-width="0" x="42" y="47.79593" width="1" height="2" id="svg_178"/>
    <rect fill="#ffffff" stroke="#000" stroke-width="0" x="41" y="49.79593" width="1" height="3" id="svg_179"/>
    <rect fill="#ffffff" stroke="#000" stroke-width="0" x="40" y="52.79593" width="1" height="4" id="svg_180"/>
    <rect fill="#ffffff" stroke="#000" stroke-width="0" x="41" y="56.79593" width="1" height="3" id="svg_181"/>
    <rect fill="#ffffff" stroke="#000" stroke-width="0" x="42" y="59.79593" width="1" height="2" id="svg_182"/>
    <rect fill="#ffffff" stroke="#000" stroke-width="0" x="43" y="61.79593" width="1" height="2" id="svg_183"/>
    <rect fill="#ffffff" stroke="#000" stroke-width="0" x="44" y="63.79593" width="1" height="1" id="svg_184"/>
    <rect fill="#ffffff" stroke="#000" stroke-width="0" x="45" y="64.79593" width="1" height="1" id="svg_185"/>
    <rect fill="#ffffff" stroke="#000" stroke-width="0" x="46" y="65.79593" width="1" height="1" id="svg_186"/>
    <rect fill="#ffffff" stroke="#000" stroke-width="0" x="47" y="66.79593" width="2" height="1" id="svg_187"/>
    <rect fill="#ffffff" stroke="#000" stroke-width="0" x="49" y="67.79593" width="3" height="1" id="svg_188"/>
    <rect fill="#ffffff" stroke="#000" stroke-width="0" x="52" y="68.79593" width="6" height="1" id="svg_189"/>
    <rect fill="#ffffff" stroke="#000" stroke-width="0" x="58" y="67.79593" width="3" height="1" id="svg_190"/>
   </g>
  </g>
 </g>

</svg>