<svg width="77" height="26" xmlns="http://www.w3.org/2000/svg">
 <g id="Layer_1">
  <title>Layer 1</title>
  <g id="svg_82">
   <g id="svg_76">
    <g id="svg_72">
     <rect id="svg_3" height="13" width="3" y="9" x="41" stroke-width="0" stroke="#000" fill="#ffabab"/>
     <rect id="svg_4" height="1" width="1" y="10" x="42" stroke-width="0" stroke="#000" fill="#000000"/>
    </g>
    <g id="svg_75">
     <rect id="svg_2" height="2" width="73" y="7.9618" x="2" stroke-width="0" stroke="#000" fill="#ffab01"/>
     <rect id="svg_179" height="9" width="77" y="0" x="0" stroke-width="0" stroke="#000" fill="#ffabab"/>
     <g id="svg_33">
      <g id="svg_195">
       <g id="svg_166">
        <rect id="svg_155" height="1" width="5" y="1.06817" x="47" stroke-width="0" stroke="#000" fill="#000000"/>
        <rect id="svg_156" height="2" width="1" y="1.06817" x="47" stroke-width="0" stroke="#000" fill="#000000"/>
        <rect id="svg_157" height="1" width="2" y="2.06817" x="46" stroke-width="0" stroke="#000" fill="#000000"/>
        <rect id="svg_158" height="5" width="1" y="2.06817" x="46" stroke-width="0" stroke="#000" fill="#000000"/>
        <rect id="svg_159" height="1" width="2" y="6.06817" x="46" stroke-width="0" stroke="#000" fill="#000000"/>
        <rect id="svg_160" height="2" width="1" y="6.06817" x="47" stroke-width="0" stroke="#000" fill="#000000"/>
        <rect id="svg_161" height="1" width="4" y="7.06817" x="47" stroke-width="0" stroke="#000" fill="#000000"/>
        <rect id="svg_162" height="4" width="2" y="4.06817" x="50" stroke-width="0" stroke="#000" fill="#000000"/>
        <rect id="svg_163" height="1" width="2" y="4.06817" x="49" stroke-width="0" stroke="#000" fill="#000000"/>
        <rect id="svg_164" height="3" width="2" y="3.06817" x="45" stroke-width="0" stroke="#000" fill="#000000"/>
       </g>
       <g id="svg_177">
        <rect id="svg_167" height="1" width="3" y="1.06817" x="55" stroke-width="0" stroke="#000" fill="#000000"/>
        <rect id="svg_168" height="5" width="2" y="3.06817" x="53" stroke-width="0" stroke="#000" fill="#000000"/>
        <rect id="svg_169" height="2" width="1" y="2.06817" x="54" stroke-width="0" stroke="#000" fill="#000000"/>
        <rect id="svg_170" height="1" width="2" y="2.06817" x="54" stroke-width="0" stroke="#000" fill="#000000"/>
        <rect id="svg_171" height="2" width="1" y="1.06817" x="55" stroke-width="0" stroke="#000" fill="#000000"/>
        <rect id="svg_172" height="5" width="2" y="3.06817" x="58" stroke-width="0" stroke="#000" fill="#000000"/>
        <rect id="svg_173" height="2" width="1" y="2.06817" x="58" stroke-width="0" stroke="#000" fill="#000000"/>
        <rect id="svg_174" height="1" width="2" y="2.06817" x="57" stroke-width="0" stroke="#000" fill="#000000"/>
        <rect id="svg_175" height="2" width="1" y="1.06817" x="57" stroke-width="0" stroke="#000" fill="#000000"/>
        <rect id="svg_176" height="1" width="5" y="5.06817" x="54" stroke-width="0" stroke="#000" fill="#000000"/>
       </g>
       <g id="svg_186" transform="rotate(-180 64.5 4.5)">
        <rect id="svg_180" height="7" width="2" y="1" x="61" stroke-width="0" stroke="#000" fill="#000000"/>
        <rect id="svg_181" height="3" width="2" y="4" x="62" stroke-width="0" stroke="#000" fill="#000000"/>
        <rect id="svg_182" height="2" width="1" y="3" x="64" stroke-width="0" stroke="#000" fill="#000000"/>
        <rect id="svg_183" height="2" width="3" y="4" x="63" stroke-width="0" stroke="#000" fill="#000000"/>
        <rect id="svg_184" height="3" width="2" y="4" x="65" stroke-width="0" stroke="#000" fill="#000000"/>
        <rect id="svg_185" height="7" width="2" y="1" x="66" stroke-width="0" stroke="#000" fill="#000000"/>
       </g>
       <g id="svg_192">
        <rect id="svg_188" height="7" width="2" y="1" x="69" stroke-width="0" stroke="#000" fill="#000000"/>
        <rect id="svg_189" height="1" width="5" y="4" x="70" stroke-width="0" stroke="#000" fill="#000000"/>
        <rect id="svg_190" height="1" width="6" y="1" x="70" stroke-width="0" stroke="#000" fill="#000000"/>
        <rect id="svg_191" height="1" width="6" y="7" x="70" stroke-width="0" stroke="#000" fill="#000000"/>
       </g>
      </g>
      <g id="svg_25">
       <g id="svg_134">
        <rect id="svg_126" height="1" width="3" y="1" x="18" stroke-width="0" stroke="#000" fill="#000000"/>
        <rect id="svg_122" height="5" width="2" y="3" x="16" stroke-width="0" stroke="#000" fill="#000000"/>
        <rect id="svg_123" height="2" width="1" y="2" x="17" stroke-width="0" stroke="#000" fill="#000000"/>
        <rect id="svg_124" height="1" width="2" y="2" x="17" stroke-width="0" stroke="#000" fill="#000000"/>
        <rect id="svg_125" height="2" width="1" y="1" x="18" stroke-width="0" stroke="#000" fill="#000000"/>
        <rect id="svg_128" height="5" width="2" y="3" x="21" stroke-width="0" stroke="#000" fill="#000000"/>
        <rect id="svg_129" height="2" width="1" y="2" x="21" stroke-width="0" stroke="#000" fill="#000000"/>
        <rect id="svg_130" height="1" width="2" y="2" x="20" stroke-width="0" stroke="#000" fill="#000000"/>
        <rect id="svg_131" height="2" width="1" y="1" x="20" stroke-width="0" stroke="#000" fill="#000000"/>
        <rect id="svg_133" height="1" width="5" y="5" x="17" stroke-width="0" stroke="#000" fill="#000000"/>
       </g>
       <g id="svg_187">
        <rect id="svg_143" height="7" width="2" y="1" x="8" stroke-width="0" stroke="#000" fill="#000000"/>
        <rect id="svg_144" height="1" width="5" y="4" x="9" stroke-width="0" stroke="#000" fill="#000000"/>
        <rect id="svg_145" height="1" width="6" y="1" x="9" stroke-width="0" stroke="#000" fill="#000000"/>
        <rect id="svg_146" height="1" width="6" y="7" x="9" stroke-width="0" stroke="#000" fill="#000000"/>
       </g>
       <g id="svg_1">
        <rect id="svg_119" height="1" width="5" y="7" x="2" stroke-width="0" stroke="#000" fill="#000000"/>
        <rect id="svg_120" height="7" width="2" y="1" x="1" stroke-width="0" stroke="#000" fill="#000000"/>
       </g>
       <g id="svg_7">
        <rect id="svg_147" height="3" width="2" y="1" x="24" stroke-width="0" stroke="#000" fill="#000000"/>
        <rect id="svg_148" height="3" width="2" y="3" x="25" stroke-width="0" stroke="#000" fill="#000000"/>
        <rect id="svg_149" height="2" width="1" y="6" x="27" stroke-width="0" stroke="#000" fill="#000000"/>
        <rect id="svg_150" height="2" width="3" y="5" x="26" stroke-width="0" stroke="#000" fill="#000000"/>
        <rect id="svg_151" height="3" width="2" y="3" x="28" stroke-width="0" stroke="#000" fill="#000000"/>
        <rect id="svg_152" height="3" width="2" y="1" x="29" stroke-width="0" stroke="#000" fill="#000000"/>
       </g>
       <g id="svg_24">
        <rect id="svg_8" height="7" width="2" y="1" x="32" stroke-width="0" stroke="#000" fill="#000000"/>
        <rect id="svg_17" height="1" width="5" y="4" x="33" stroke-width="0" stroke="#000" fill="#000000"/>
        <rect id="svg_18" height="1" width="6" y="1" x="33" stroke-width="0" stroke="#000" fill="#000000"/>
        <rect id="svg_21" height="1" width="6" y="7" x="33" stroke-width="0" stroke="#000" fill="#000000"/>
       </g>
      </g>
     </g>
    </g>
   </g>
   <g id="svg_66">
    <rect id="svg_62" height="2" width="2" y="22" x="43" stroke-width="0" stroke="#000000" fill="#00aaff"/>
    <rect id="svg_61" height="5" width="8" y="21" x="36" stroke-width="0" stroke="#000000" fill="#00aaff"/>
    <rect id="svg_15" height="2" width="2" y="15" x="39" stroke-width="0" stroke="#000000" fill="#00ffff"/>
    <rect id="svg_23" height="5" width="12" y="16" x="29" stroke-width="0" stroke="#000000" fill="#00aaff"/>
    <rect id="svg_12" height="2" width="1" y="10" x="36" stroke-width="0" stroke="#000000" fill="#00ffff"/>
    <rect id="svg_13" height="1" width="3" y="11" x="35" stroke-width="0" stroke="#000000" fill="#00ffff"/>
    <rect id="svg_14" height="2" width="4" y="12" x="37" stroke-width="0" stroke="#000000" fill="#00ffff"/>
    <rect id="svg_16" height="2" width="2" y="17" x="37" stroke-width="0" stroke="#000000" fill="#00ffff"/>
    <rect id="svg_19" height="2" width="5" y="12" x="33" stroke-width="0" stroke="#000000" fill="#00aaff"/>
    <rect id="svg_20" height="2" width="7" y="13" x="32" stroke-width="0" stroke="#000000" fill="#00aaff"/>
    <rect id="svg_22" height="3" width="9" y="14" x="31" stroke-width="0" stroke="#000000" fill="#00aaff"/>
    <rect id="svg_28" height="1" width="2" y="18" x="38" stroke-width="0" stroke="#000000" fill="#00ffff"/>
    <rect id="svg_29" height="2" width="1" y="18" x="37" stroke-width="0" stroke="#000000" fill="#00ffff"/>
    <rect id="svg_39" height="1" width="3" y="16" x="29" stroke-width="0" stroke="#000000" fill="#ffffff"/>
    <rect id="svg_47" height="1" width="3" y="18" x="29" stroke-width="0" stroke="#000000" fill="#00ffff"/>
    <g id="svg_40">
     <rect id="svg_30" height="6" width="2" y="14" x="34" stroke-width="0" stroke="#000000" fill="#ffffff"/>
     <rect id="svg_31" height="4" width="2" y="15" x="35" stroke-width="0" stroke="#000000" fill="#ffffff"/>
     <rect id="svg_32" height="3" width="1" y="16" x="34" stroke-width="0" stroke="#000000" fill="#000000"/>
     <rect id="svg_36" height="6" width="1" y="14" x="32" stroke-width="0" stroke="#000000" fill="#ffffff"/>
     <rect id="svg_37" height="4" width="2" y="15" x="31" stroke-width="0" stroke="#000000" fill="#ffffff"/>
     <rect id="svg_35" height="3" width="1" y="16" x="32" stroke-width="0" stroke="#000000" fill="#000000"/>
    </g>
    <rect id="svg_42" height="3" width="2" y="17" x="28" stroke-width="0" stroke="#000000" fill="#ff7777"/>
    <rect id="svg_41" height="3" width="2" y="15" x="28" stroke-width="0" stroke="#000000" fill="#ffffff"/>
    <rect id="svg_43" height="2" width="1" y="19" x="29" stroke-width="0" stroke="#000000" fill="#ff7777"/>
    <rect id="svg_44" height="1" width="2" y="20" x="29" stroke-width="0" stroke="#000000" fill="#ff7777"/>
    <rect id="svg_48" height="2" width="11" y="20" x="30" stroke-width="0" stroke="#000000" fill="#00aaff"/>
    <rect id="svg_45" height="2" width="1" y="20" x="30" stroke-width="0" stroke="#000000" fill="#ff7777"/>
    <rect id="svg_49" height="1" width="7" y="20" x="31" stroke-width="0" stroke="#000" fill="#000000"/>
    <rect id="svg_50" height="1" width="1" y="19" x="38" stroke-width="0" stroke="#000" fill="#000000"/>
    <rect id="svg_53" height="4" width="4" y="22" x="32" stroke-width="0" stroke="#000000" fill="#ffffff"/>
    <rect id="svg_55" height="3" width="2" y="23" x="31" stroke-width="0" stroke="#000000" fill="#ffffff"/>
    <rect id="svg_56" height="2" width="2" y="23" x="35" stroke-width="0" stroke="#000000" fill="#ffffff"/>
    <rect id="svg_57" height="1" width="6" y="25" x="34" stroke-width="0" stroke="#000000" fill="#ff7777"/>
    <rect id="svg_58" height="2" width="2" y="24" x="35" stroke-width="0" stroke="#000000" fill="#ff7777"/>
    <rect id="svg_59" height="2" width="2" y="24" x="30" stroke-width="0" stroke="#000000" fill="#ff7777"/>
    <rect id="svg_60" height="1" width="2" y="24" x="29" stroke-width="0" stroke="#000000" fill="#ff7777"/>
   </g>
   <g id="svg_81">
    <g id="svg_70">
     <rect id="svg_68" height="2" width="2" y="19" x="41" stroke-width="0" stroke="#000" fill="#ffab01"/>
     <rect id="svg_69" height="2" width="2" y="20" x="42" stroke-width="0" stroke="#000" fill="#ffab01"/>
    </g>
    <g id="svg_80">
     <rect id="svg_11" height="2" width="2" y="22" x="40" stroke-width="0" stroke="#000000" fill="#ff7777"/>
     <g id="svg_67">
      <rect id="svg_5" height="2" width="3" y="23" x="41" stroke-width="0" stroke="#000" fill="#dd4400"/>
      <rect id="svg_9" height="4" width="2" y="20" x="41" stroke-width="0" stroke="#000000" fill="#ff7777"/>
      <rect id="svg_10" height="2" width="5" y="21" x="39" stroke-width="0" stroke="#000000" fill="#ff7777"/>
      <rect id="svg_6" height="3" width="1" y="20" x="40" stroke-width="0" stroke="#000000" fill="#dd4400"/>
     </g>
    </g>
   </g>
  </g>
 </g>

</svg>