<svg width="77" height="25.000000000000004" xmlns="http://www.w3.org/2000/svg">
 <g id="Layer_1">
  <title>Layer 1</title>
  <g id="svg_80">
   <g id="svg_79">
    <g id="svg_75">
     <g id="svg_74">
      <g id="svg_66">
       <g id="svg_30">
        <rect fill="#fbfe00" stroke="#000" stroke-width="0" x="31.50991" y="11" width="3" height="2" id="svg_5"/>
        <rect fill="#fbfe00" stroke="#000" stroke-width="0" x="32.50991" y="9.9618" width="1" height="2" id="svg_6"/>
       </g>
       <g id="svg_64">
        <g id="svg_47">
         <rect fill="#07ff07" stroke="#000" stroke-width="0" x="30.50991" y="11.9618" width="5" height="2" id="svg_9"/>
         <rect fill="#07ff07" stroke="#000" stroke-width="0" x="28.50991" y="12.9618" width="9" height="3" id="svg_10"/>
         <rect fill="#07ff07" stroke="#000" stroke-width="0" x="27.50991" y="14.9618" width="11" height="3" id="svg_11"/>
         <rect fill="#07ff07" stroke="#000" stroke-width="0" x="26.50991" y="16.9618" width="13" height="7" id="svg_12"/>
        </g>
        <g id="svg_49">
         <g id="svg_26">
          <rect fill="#ffffff" stroke="#000" stroke-width="0" x="30.50991" y="13.9618" width="2" height="5" id="svg_15"/>
          <rect fill="#ffffff" stroke="#000" stroke-width="0" x="29.50991" y="14.9618" width="2" height="3" id="svg_16"/>
          <rect fill="#000000" stroke="#000" stroke-width="0" x="31.50991" y="14.9618" width="1" height="3" id="svg_22"/>
         </g>
         <g id="svg_27">
          <rect transform="rotate(-180 35.5099 16.4236)" fill="#ffffff" stroke="#000" stroke-width="0" x="34.50991" y="13.92361" width="2" height="5" id="svg_19"/>
          <rect transform="rotate(-180 36.5099 16.4236)" fill="#ffffff" stroke="#000" stroke-width="0" x="35.50991" y="14.92361" width="2" height="3" id="svg_20"/>
          <rect fill="#000000" stroke="#000" stroke-width="0" x="34.50991" y="14.92361" width="1" height="3" id="svg_23"/>
         </g>
        </g>
       </g>
       <rect fill="#fbfe00" stroke="#000" stroke-width="0" x="28.50991" y="16.9618" width="1" height="2" id="svg_13"/>
      </g>
      <g id="svg_46">
       <g id="svg_44">
        <rect fill="#ffffff" stroke="#000" stroke-width="0" x="29.50991" y="21.9618" width="7" height="3" id="svg_42"/>
        <rect fill="#ffffff" stroke="#000" stroke-width="0" x="30.50991" y="20.9618" width="5" height="2" id="svg_43"/>
       </g>
       <g id="svg_45">
        <g id="svg_38">
         <rect fill="#fe7677" stroke="#000" stroke-width="0" x="28.54811" y="22.9618" width="2" height="2" id="svg_36"/>
         <rect fill="#fe7677" stroke="#000" stroke-width="0" x="27.54811" y="23.9618" width="4" height="1" id="svg_37"/>
        </g>
        <g id="svg_41">
         <rect fill="#fe7677" stroke="#000" stroke-width="0" x="35.50991" y="22.9618" width="2" height="2" id="svg_39"/>
         <rect fill="#fe7677" stroke="#000" stroke-width="0" x="34.50991" y="23.9618" width="4" height="1" id="svg_40"/>
        </g>
       </g>
      </g>
      <g id="svg_73">
       <g id="svg_51">
        <rect fill="#ffffff" stroke="#000" stroke-width="0" x="25.50991" y="18.9618" width="3" height="3" id="svg_29"/>
        <g id="svg_50">
         <rect fill="#fe7677" stroke="#000" stroke-width="0" x="26.50991" y="20.9618" width="2" height="2" id="svg_35"/>
         <rect fill="#fe7677" stroke="#000" stroke-width="0" x="26.50991" y="19.9618" width="3" height="2" id="svg_31"/>
        </g>
       </g>
       <rect stroke="#000" fill="#fe7677" stroke-width="0" x="25.50991" y="20.9618" width="2" height="1" id="svg_32"/>
      </g>
     </g>
     <g id="svg_52">
      <rect fill="#fe7677" stroke-width="0" x="37.50991" y="17.9618" width="2" height="6" id="svg_54" stroke="#000"/>
      <rect fill="#fe7677" stroke="#000" stroke-width="0" x="38.50991" y="17.9618" width="2" height="3" id="svg_55"/>
     </g>
    </g>
    <g id="svg_60">
     <rect fill="#000000" stroke="#000" stroke-width="0" x="27.50991" y="17.9618" width="1" height="1" id="svg_14"/>
     <rect fill="#000000" stroke="#000" stroke-width="0" x="28.50991" y="18.9618" width="9" height="1" id="svg_28"/>
    </g>
   </g>
   <g id="svg_53">
    <g id="svg_103">
     <rect fill="#ffabab" stroke="#000" stroke-width="0" x="37.51566" y="9.02997" width="2" height="10" id="svg_3"/>
     <g id="svg_67" stroke="null">
      <rect fill="#ffab01" stroke-width="0" x="37.47746" y="23.34801" width="0.68169" height="0.68169" id="svg_61" stroke="#000"/>
      <rect fill="#ea5b05" stroke-width="0" x="38.84084" y="22.6995" width="0.68169" height="0.68169" id="svg_62" stroke="#000"/>
      <rect fill="#ea5b05" stroke-width="0" x="38.15915" y="23.35515" width="0.68169" height="0.68169" id="svg_63" stroke="#000"/>
      <rect fill="#ffab01" stroke-width="0" x="38.8337" y="23.35515" width="0.68169" height="0.68169" id="svg_65" stroke="#000"/>
     </g>
     <g id="svg_68">
      <rect fill="#ffab01" stroke-width="0" x="37.51566" y="17.37374" width="0.65623" height="0.65623" id="svg_57" stroke="#000"/>
      <rect fill="#ffab01" stroke-width="0" x="38.82811" y="17.39881" width="0.65623" height="0.65623" id="svg_58" stroke="#000"/>
      <rect fill="#ffab01" stroke-width="0" x="38.17189" y="17.99177" width="0.65623" height="0.65623" id="svg_59" stroke="#000"/>
     </g>
     <rect fill="#000000" stroke="#000" stroke-width="0" x="38.0573" y="10.02997" width="1" height="1" id="svg_4"/>
    </g>
    <g id="svg_34">
     <rect fill="#ffab01" stroke="#000" stroke-width="0" x="1" y="7.9618" width="73" height="2" id="svg_2"/>
     <rect fill="#ffabab" stroke="#000" stroke-width="0" x="0" y="0" width="77" height="9" id="svg_179"/>
     <g id="svg_33">
      <g id="svg_195">
       <g id="svg_166">
        <rect fill="#000000" stroke="#000" stroke-width="0" x="47" y="1.06817" width="5" height="1" id="svg_155"/>
        <rect fill="#000000" stroke="#000" stroke-width="0" x="47" y="1.06817" width="1" height="2" id="svg_156"/>
        <rect fill="#000000" stroke="#000" stroke-width="0" x="46" y="2.06817" width="2" height="1" id="svg_157"/>
        <rect fill="#000000" stroke="#000" stroke-width="0" x="46" y="2.06817" width="1" height="5" id="svg_158"/>
        <rect fill="#000000" stroke="#000" stroke-width="0" x="46" y="6.06817" width="2" height="1" id="svg_159"/>
        <rect fill="#000000" stroke="#000" stroke-width="0" x="47" y="6.06817" width="1" height="2" id="svg_160"/>
        <rect fill="#000000" stroke="#000" stroke-width="0" x="47" y="7.06817" width="4" height="1" id="svg_161"/>
        <rect fill="#000000" stroke="#000" stroke-width="0" x="50" y="4.06817" width="2" height="4" id="svg_162"/>
        <rect fill="#000000" stroke="#000" stroke-width="0" x="49" y="4.06817" width="2" height="1" id="svg_163"/>
        <rect fill="#000000" stroke="#000" stroke-width="0" x="45" y="3.06817" width="2" height="3" id="svg_164"/>
       </g>
       <g id="svg_177">
        <rect fill="#000000" stroke="#000" stroke-width="0" x="55" y="1.06817" width="3" height="1" id="svg_167"/>
        <rect fill="#000000" stroke="#000" stroke-width="0" x="53" y="3.06817" width="2" height="5" id="svg_168"/>
        <rect fill="#000000" stroke="#000" stroke-width="0" x="54" y="2.06817" width="1" height="2" id="svg_169"/>
        <rect fill="#000000" stroke="#000" stroke-width="0" x="54" y="2.06817" width="2" height="1" id="svg_170"/>
        <rect fill="#000000" stroke="#000" stroke-width="0" x="55" y="1.06817" width="1" height="2" id="svg_171"/>
        <rect fill="#000000" stroke="#000" stroke-width="0" x="58" y="3.06817" width="2" height="5" id="svg_172"/>
        <rect fill="#000000" stroke="#000" stroke-width="0" x="58" y="2.06817" width="1" height="2" id="svg_173"/>
        <rect fill="#000000" stroke="#000" stroke-width="0" x="57" y="2.06817" width="2" height="1" id="svg_174"/>
        <rect fill="#000000" stroke="#000" stroke-width="0" x="57" y="1.06817" width="1" height="2" id="svg_175"/>
        <rect fill="#000000" stroke="#000" stroke-width="0" x="54" y="5.06817" width="5" height="1" id="svg_176"/>
       </g>
       <g transform="rotate(-180 64.5 4.5)" id="svg_186">
        <rect fill="#000000" stroke="#000" stroke-width="0" x="61" y="1" width="2" height="7" id="svg_180"/>
        <rect fill="#000000" stroke="#000" stroke-width="0" x="62" y="4" width="2" height="3" id="svg_181"/>
        <rect fill="#000000" stroke="#000" stroke-width="0" x="64" y="3" width="1" height="2" id="svg_182"/>
        <rect fill="#000000" stroke="#000" stroke-width="0" x="63" y="4" width="3" height="2" id="svg_183"/>
        <rect fill="#000000" stroke="#000" stroke-width="0" x="65" y="4" width="2" height="3" id="svg_184"/>
        <rect fill="#000000" stroke="#000" stroke-width="0" x="66" y="1" width="2" height="7" id="svg_185"/>
       </g>
       <g id="svg_192">
        <rect fill="#000000" stroke="#000" stroke-width="0" x="69" y="1" width="2" height="7" id="svg_188"/>
        <rect fill="#000000" stroke="#000" stroke-width="0" x="70" y="4" width="5" height="1" id="svg_189"/>
        <rect fill="#000000" stroke="#000" stroke-width="0" x="70" y="1" width="6" height="1" id="svg_190"/>
        <rect fill="#000000" stroke="#000" stroke-width="0" x="70" y="7" width="6" height="1" id="svg_191"/>
       </g>
      </g>
      <g id="svg_25">
       <g id="svg_134">
        <rect fill="#000000" stroke="#000" stroke-width="0" x="18" y="1" width="3" height="1" id="svg_126"/>
        <rect fill="#000000" stroke="#000" stroke-width="0" x="16" y="3" width="2" height="5" id="svg_122"/>
        <rect fill="#000000" stroke="#000" stroke-width="0" x="17" y="2" width="1" height="2" id="svg_123"/>
        <rect fill="#000000" stroke="#000" stroke-width="0" x="17" y="2" width="2" height="1" id="svg_124"/>
        <rect fill="#000000" stroke="#000" stroke-width="0" x="18" y="1" width="1" height="2" id="svg_125"/>
        <rect fill="#000000" stroke="#000" stroke-width="0" x="21" y="3" width="2" height="5" id="svg_128"/>
        <rect fill="#000000" stroke="#000" stroke-width="0" x="21" y="2" width="1" height="2" id="svg_129"/>
        <rect fill="#000000" stroke="#000" stroke-width="0" x="20" y="2" width="2" height="1" id="svg_130"/>
        <rect fill="#000000" stroke="#000" stroke-width="0" x="20" y="1" width="1" height="2" id="svg_131"/>
        <rect fill="#000000" stroke="#000" stroke-width="0" x="17" y="5" width="5" height="1" id="svg_133"/>
       </g>
       <g id="svg_187">
        <rect fill="#000000" stroke="#000" stroke-width="0" x="8" y="1" width="2" height="7" id="svg_143"/>
        <rect fill="#000000" stroke="#000" stroke-width="0" x="9" y="4" width="5" height="1" id="svg_144"/>
        <rect fill="#000000" stroke="#000" stroke-width="0" x="9" y="1" width="6" height="1" id="svg_145"/>
        <rect fill="#000000" stroke="#000" stroke-width="0" x="9" y="7" width="6" height="1" id="svg_146"/>
       </g>
       <g id="svg_1">
        <rect fill="#000000" stroke="#000" stroke-width="0" x="2" y="7" width="5" height="1" id="svg_119"/>
        <rect fill="#000000" stroke="#000" stroke-width="0" x="1" y="1" width="2" height="7" id="svg_120"/>
       </g>
       <g id="svg_7">
        <rect fill="#000000" stroke="#000" stroke-width="0" x="24" y="1" width="2" height="3" id="svg_147"/>
        <rect fill="#000000" stroke="#000" stroke-width="0" x="25" y="3" width="2" height="3" id="svg_148"/>
        <rect fill="#000000" stroke="#000" stroke-width="0" x="27" y="6" width="1" height="2" id="svg_149"/>
        <rect fill="#000000" stroke="#000" stroke-width="0" x="26" y="5" width="3" height="2" id="svg_150"/>
        <rect fill="#000000" stroke="#000" stroke-width="0" x="28" y="3" width="2" height="3" id="svg_151"/>
        <rect fill="#000000" stroke="#000" stroke-width="0" x="29" y="1" width="2" height="3" id="svg_152"/>
       </g>
       <g id="svg_24">
        <rect fill="#000000" stroke="#000" stroke-width="0" x="32" y="1" width="2" height="7" id="svg_8"/>
        <rect fill="#000000" stroke="#000" stroke-width="0" x="33" y="4" width="5" height="1" id="svg_17"/>
        <rect fill="#000000" stroke="#000" stroke-width="0" x="33" y="1" width="6" height="1" id="svg_18"/>
        <rect fill="#000000" stroke="#000" stroke-width="0" x="33" y="7" width="6" height="1" id="svg_21"/>
       </g>
      </g>
     </g>
    </g>
   </g>
  </g>
 </g>

</svg>