<svg width="150" height="15.000000000000002" xmlns="http://www.w3.org/2000/svg">
 <g>
  <title>Layer 1</title>
  <rect id="svg_27" height="15" width="150" y="0" x="0" stroke-width="0" fill="#000000" stroke="#000"/>
  <rect stroke-width="0" id="svg_1" height="13" width="150" stroke="#000" fill="#ffab01"/>
  <rect stroke-width="0" id="svg_21" height="2" width="146" y="12" x="2" stroke="#000" fill="#ffab01"/>
  <rect stroke-width="0" id="svg_22" height="2" width="142" y="13" x="4" stroke="#000" fill="#ffab01"/>
  <rect id="svg_3" height="1" width="5" y="0" x="27" stroke-width="0" stroke="#000" fill="#e87f00"/>
  <rect id="svg_5" height="1" width="1" y="2" x="31" stroke-width="0" stroke="#000" fill="#e87f00"/>
  <rect id="svg_6" height="1" width="1" y="3.95749" x="31" stroke-width="0" stroke="#000" fill="#e87f00"/>
  <rect id="svg_10" height="2" width="5" y="1" x="2" stroke-width="0" stroke="#000" fill="#e87f00"/>
  <rect id="svg_11" height="4" width="1" y="5" x="6" stroke-width="0" stroke="#000" fill="#e87f00"/>
  <rect id="svg_12" height="2" width="6" y="3" x="10" stroke-width="0" stroke="#000" fill="#e87f00"/>
  <rect id="svg_13" height="4" width="1" y="6" x="21" stroke-width="0" stroke="#000" fill="#e87f00"/>
  <rect id="svg_14" height="1" width="5" y="11" x="13" stroke-width="0" stroke="#000" fill="#e87f00"/>
  <rect id="svg_15" height="3" width="1" y="6" x="15" stroke-width="0" stroke="#000" fill="#e87f00"/>
  <rect id="svg_16" height="1" width="3" y="4" x="19" stroke-width="0" stroke="#000" fill="#e87f00"/>
  <rect id="svg_17" height="4" width="1" y="1" x="23" stroke-width="0" stroke="#000" fill="#e87f00"/>
  <rect id="svg_18" height="1" width="3" y="12" x="1" stroke-width="0" stroke="#000" fill="#e87f00"/>
  <rect id="svg_19" height="4" width="2" y="6" x="3" stroke-width="0" stroke="#000" fill="#e87f00"/>
  <rect id="svg_20" height="1" width="4" y="8" x="9" stroke-width="0" stroke="#000" fill="#e87f00"/>
  <rect id="svg_24" height="5" width="1" y="7" x="24" stroke-width="0" stroke="#000" fill="#e87f00"/>
  <rect id="svg_25" height="4" width="2" y="4" x="27" stroke-width="0" stroke="#000" fill="#e87f00"/>
  <rect id="svg_26" height="4" width="1" y="10" x="8" stroke-width="0" stroke="#000" fill="#e87f00"/>
  <rect fill="#e87f00" stroke="#000" stroke-width="0" x="30" y="9" width="7" height="3" id="svg_2"/>
  <rect fill="#e87f00" stroke="#000" stroke-width="0" x="34" y="6" width="5" height="1" id="svg_4"/>
  <rect fill="#e87f00" stroke="#000" stroke-width="0" x="48" y="11" width="1" height="1" id="svg_7"/>
  <rect fill="#e87f00" stroke="#000" stroke-width="0" x="64" y="4" width="1" height="1" id="svg_8"/>
  <rect fill="#e87f00" stroke="#000" stroke-width="0" x="87" y="9" width="1" height="1" id="svg_9"/>
  <rect fill="#e87f00" stroke="#000" stroke-width="0" x="93" y="5" width="1" height="1" id="svg_23"/>
  <rect fill="#e87f00" stroke="#000" stroke-width="0" x="115" y="13" width="1" height="1" id="svg_28"/>
  <rect fill="#e87f00" stroke="#000" stroke-width="0" x="50" y="3" width="1" height="4" id="svg_29"/>
  <rect fill="#e87f00" stroke="#000" stroke-width="0" x="69" y="6" width="2" height="5" id="svg_30"/>
  <rect fill="#e87f00" stroke="#000" stroke-width="0" x="100" y="10" width="5" height="1" id="svg_31"/>
  <rect fill="#e87f00" stroke="#000" stroke-width="0" x="38" y="3" width="3" height="1" id="svg_32"/>
  <rect fill="#e87f00" stroke="#000" stroke-width="0" x="43" y="7" width="1" height="6" id="svg_33"/>
  <rect fill="#e87f00" stroke="#000" stroke-width="0" x="46" y="1" width="1" height="4" id="svg_34"/>
  <rect fill="#e87f00" stroke="#000" stroke-width="0" x="56" y="4" width="6" height="3" id="svg_35"/>
  <rect fill="#e87f00" stroke="#000" stroke-width="0" x="48" y="8" width="5" height="1" id="svg_36"/>
  <rect fill="#e87f00" stroke="#000" stroke-width="0" x="67" y="9" width="1" height="5" id="svg_37"/>
  <rect fill="#e87f00" stroke="#000" stroke-width="0" x="50" y="11" width="1" height="1" id="svg_38"/>
  <rect fill="#e87f00" stroke="#000" stroke-width="0" x="64" y="2" width="1" height="1" id="svg_39"/>
  <rect fill="#e87f00" stroke="#000" stroke-width="0" x="87" y="11" width="1" height="1" id="svg_40"/>
  <rect fill="#e87f00" stroke="#000" stroke-width="0" x="91" y="5" width="1" height="1" id="svg_41"/>
  <rect fill="#e87f00" stroke="#000" stroke-width="0" x="113" y="13" width="1" height="1" id="svg_42"/>
  <rect fill="#e87f00" stroke="#000" stroke-width="0" x="75" y="3" width="5" height="1" id="svg_43"/>
  <rect fill="#e87f00" stroke="#000" stroke-width="0" x="83" y="5" width="2" height="4" id="svg_44"/>
  <rect fill="#e87f00" stroke="#000" stroke-width="0" x="109" y="7" width="1" height="4" id="svg_45"/>
  <rect fill="#e87f00" stroke="#000" stroke-width="0" x="118" y="3" width="7" height="1" id="svg_46"/>
  <rect fill="#e87f00" stroke="#000" stroke-width="0" x="113" y="6" width="4" height="4" id="svg_47"/>
  <rect fill="#e87f00" stroke="#000" stroke-width="0" x="79" y="11" width="5" height="1" id="svg_48"/>
  <rect fill="#e87f00" stroke="#000" stroke-width="0" x="59" y="11" width="5" height="1" id="svg_49"/>
  <rect fill="#e87f00" stroke="#000" stroke-width="0" x="77" y="7" width="1" height="3" id="svg_50"/>
  <rect fill="#e87f00" stroke="#000" stroke-width="0" x="55" y="9" width="1" height="5" id="svg_51"/>
  <rect fill="#e87f00" stroke="#000" stroke-width="0" x="87" y="1" width="6" height="1" id="svg_52"/>
  <rect fill="#e87f00" stroke="#000" stroke-width="0" x="94" y="9" width="2" height="5" id="svg_53"/>
  <rect fill="#e87f00" stroke="#000" stroke-width="0" x="97" y="3" width="1" height="5" id="svg_54"/>
  <rect fill="#e87f00" stroke="#000" stroke-width="0" x="103" y="4" width="4" height="1" id="svg_55"/>
  <rect fill="#e87f00" stroke="#000" stroke-width="0" x="107" y="10" width="1" height="4" id="svg_56"/>
  <rect fill="#e87f00" stroke="#000" stroke-width="0" x="53" y="2" width="5" height="1" id="svg_57"/>
  <rect fill="#e87f00" stroke="#000" stroke-width="0" x="63" y="8" width="3" height="1" id="svg_58"/>
  <rect fill="#e87f00" stroke="#000" stroke-width="0" x="72" y="12" width="4" height="1" id="svg_59"/>
  <rect fill="#e87f00" stroke="#000" stroke-width="0" x="74" y="5" width="1" height="4" id="svg_60"/>
  <rect fill="#e87f00" stroke="#000" stroke-width="0" x="84" y="3" width="5" height="1" id="svg_61"/>
  <rect fill="#e87f00" stroke="#000" stroke-width="0" x="90" y="7" width="1" height="4" id="svg_62"/>
  <rect fill="#e87f00" stroke="#000" stroke-width="0" x="100" y="1" width="5" height="1" id="svg_63"/>
  <rect fill="#e87f00" stroke="#000" stroke-width="0" x="101.18829" y="6.41213" width="2" height="2" id="svg_64"/>
  <rect fill="#e87f00" stroke="#000" stroke-width="0" x="98" y="11" width="1" height="2" id="svg_65"/>
  <rect fill="#e87f00" stroke="#000" stroke-width="0" x="111" y="2" width="1" height="5" id="svg_66"/>
  <rect fill="#e87f00" stroke="#000" stroke-width="0" x="119" y="5" width="1" height="4" id="svg_67"/>
  <rect fill="#e87f00" stroke="#000" stroke-width="0" x="121" y="7" width="1" height="3" id="svg_68"/>
  <rect fill="#e87f00" stroke="#000" stroke-width="0" x="121" y="11" width="5" height="1" id="svg_69"/>
  <rect fill="#e87f00" stroke="#000" stroke-width="0" x="70" y="1" width="2" height="2" id="svg_70"/>
  <rect fill="#e87f00" stroke="#000" stroke-width="0" x="139" y="2" width="1" height="1" id="svg_71"/>
  <rect fill="#e87f00" stroke="#000" stroke-width="0" x="139" y="4" width="1" height="1" id="svg_72"/>
  <rect fill="#e87f00" stroke="#000" stroke-width="0" x="137" y="9" width="7" height="1" id="svg_73"/>
  <rect fill="#e87f00" stroke="#000" stroke-width="0" x="139" y="7" width="8" height="1" id="svg_74"/>
  <rect fill="#e87f00" stroke="#000" stroke-width="0" x="129" y="2" width="7" height="3" id="svg_75"/>
  <rect fill="#e87f00" stroke="#000" stroke-width="0" x="128" y="10" width="1" height="4" id="svg_76"/>
  <rect fill="#e87f00" stroke="#000" stroke-width="0" x="133" y="7" width="1" height="6" id="svg_77"/>
  <rect fill="#e87f00" stroke="#000" stroke-width="0" x="146" y="1" width="3" height="2" id="svg_78"/>
  <rect fill="#e87f00" stroke="#000" stroke-width="0" x="140" y="11" width="1" height="3" id="svg_79"/>
  <rect fill="#e87f00" stroke="#000" stroke-width="0" x="125" y="7" width="6" height="1" id="svg_80"/>
  <rect opacity="0.25" id="svg_81" height="15" width="150" y="0" x="0" stroke-width="0" fill="#000000" stroke="#000"/>
 </g>

</svg>