<svg width="150" height="15.000000000000002" xmlns="http://www.w3.org/2000/svg">
 <g>
  <title>Layer 1</title>
  <rect stroke="#000" fill="#000000" stroke-width="0" x="0" y="0" width="150" height="15" id="svg_27"/>
  <rect fill="#ffab01" stroke="#000" width="150" height="13" id="svg_1" stroke-width="0"/>
  <rect fill="#ffab01" stroke="#000" x="2" y="12" width="146" height="2" id="svg_21" stroke-width="0"/>
  <rect fill="#ffab01" stroke="#000" x="4" y="13" width="142" height="2" id="svg_22" stroke-width="0"/>
  <rect fill="#e87f00" stroke="#000" stroke-width="0" x="27" y="0" width="5" height="1" id="svg_3"/>
  <rect fill="#e87f00" stroke="#000" stroke-width="0" x="31" y="2" width="1" height="1" id="svg_5"/>
  <rect fill="#e87f00" stroke="#000" stroke-width="0" x="31" y="3.95749" width="1" height="1" id="svg_6"/>
  <rect fill="#e87f00" stroke="#000" stroke-width="0" x="2" y="1" width="5" height="2" id="svg_10"/>
  <rect fill="#e87f00" stroke="#000" stroke-width="0" x="6" y="5" width="1" height="4" id="svg_11"/>
  <rect fill="#e87f00" stroke="#000" stroke-width="0" x="10" y="3" width="6" height="2" id="svg_12"/>
  <rect fill="#e87f00" stroke="#000" stroke-width="0" x="21" y="6" width="1" height="4" id="svg_13"/>
  <rect fill="#e87f00" stroke="#000" stroke-width="0" x="13" y="11" width="5" height="1" id="svg_14"/>
  <rect fill="#e87f00" stroke="#000" stroke-width="0" x="15" y="6" width="1" height="3" id="svg_15"/>
  <rect fill="#e87f00" stroke="#000" stroke-width="0" x="19" y="4" width="3" height="1" id="svg_16"/>
  <rect fill="#e87f00" stroke="#000" stroke-width="0" x="23" y="1" width="1" height="4" id="svg_17"/>
  <rect fill="#e87f00" stroke="#000" stroke-width="0" x="1" y="12" width="3" height="1" id="svg_18"/>
  <rect fill="#e87f00" stroke="#000" stroke-width="0" x="3" y="6" width="2" height="4" id="svg_19"/>
  <rect fill="#e87f00" stroke="#000" stroke-width="0" x="9" y="8" width="4" height="1" id="svg_20"/>
  <rect fill="#e87f00" stroke="#000" stroke-width="0" x="24" y="7" width="1" height="5" id="svg_24"/>
  <rect fill="#e87f00" stroke="#000" stroke-width="0" x="27" y="4" width="2" height="4" id="svg_25"/>
  <rect fill="#e87f00" stroke="#000" stroke-width="0" x="8" y="10" width="1" height="4" id="svg_26"/>
  <rect id="svg_2" height="3" width="7" y="9" x="30" stroke-width="0" stroke="#000" fill="#e87f00"/>
  <rect id="svg_4" height="1" width="5" y="6" x="34" stroke-width="0" stroke="#000" fill="#e87f00"/>
  <rect id="svg_7" height="1" width="1" y="11" x="48" stroke-width="0" stroke="#000" fill="#e87f00"/>
  <rect id="svg_8" height="1" width="1" y="4" x="64" stroke-width="0" stroke="#000" fill="#e87f00"/>
  <rect id="svg_9" height="1" width="1" y="9" x="87" stroke-width="0" stroke="#000" fill="#e87f00"/>
  <rect id="svg_23" height="1" width="1" y="5" x="93" stroke-width="0" stroke="#000" fill="#e87f00"/>
  <rect id="svg_28" height="1" width="1" y="13" x="115" stroke-width="0" stroke="#000" fill="#e87f00"/>
  <rect id="svg_29" height="4" width="1" y="3" x="50" stroke-width="0" stroke="#000" fill="#e87f00"/>
  <rect id="svg_30" height="5" width="2" y="6" x="69" stroke-width="0" stroke="#000" fill="#e87f00"/>
  <rect id="svg_31" height="1" width="5" y="10" x="100" stroke-width="0" stroke="#000" fill="#e87f00"/>
  <rect id="svg_32" height="1" width="3" y="3" x="38" stroke-width="0" stroke="#000" fill="#e87f00"/>
  <rect id="svg_33" height="6" width="1" y="7" x="43" stroke-width="0" stroke="#000" fill="#e87f00"/>
  <rect id="svg_34" height="4" width="1" y="1" x="46" stroke-width="0" stroke="#000" fill="#e87f00"/>
  <rect id="svg_35" height="3" width="6" y="4" x="56" stroke-width="0" stroke="#000" fill="#e87f00"/>
  <rect id="svg_36" height="1" width="5" y="8" x="48" stroke-width="0" stroke="#000" fill="#e87f00"/>
  <rect id="svg_37" height="5" width="1" y="9" x="67" stroke-width="0" stroke="#000" fill="#e87f00"/>
  <rect id="svg_38" height="1" width="1" y="11" x="50" stroke-width="0" stroke="#000" fill="#e87f00"/>
  <rect id="svg_39" height="1" width="1" y="2" x="64" stroke-width="0" stroke="#000" fill="#e87f00"/>
  <rect id="svg_40" height="1" width="1" y="11" x="87" stroke-width="0" stroke="#000" fill="#e87f00"/>
  <rect id="svg_41" height="1" width="1" y="5" x="91" stroke-width="0" stroke="#000" fill="#e87f00"/>
  <rect id="svg_42" height="1" width="1" y="13" x="113" stroke-width="0" stroke="#000" fill="#e87f00"/>
  <rect id="svg_43" height="1" width="5" y="3" x="75" stroke-width="0" stroke="#000" fill="#e87f00"/>
  <rect id="svg_44" height="4" width="2" y="5" x="83" stroke-width="0" stroke="#000" fill="#e87f00"/>
  <rect id="svg_45" height="4" width="1" y="7" x="109" stroke-width="0" stroke="#000" fill="#e87f00"/>
  <rect id="svg_46" height="1" width="7" y="3" x="118" stroke-width="0" stroke="#000" fill="#e87f00"/>
  <rect id="svg_47" height="4" width="4" y="6" x="113" stroke-width="0" stroke="#000" fill="#e87f00"/>
  <rect id="svg_48" height="1" width="5" y="11" x="79" stroke-width="0" stroke="#000" fill="#e87f00"/>
  <rect id="svg_49" height="1" width="5" y="11" x="59" stroke-width="0" stroke="#000" fill="#e87f00"/>
  <rect id="svg_50" height="3" width="1" y="7" x="77" stroke-width="0" stroke="#000" fill="#e87f00"/>
  <rect id="svg_51" height="5" width="1" y="9" x="55" stroke-width="0" stroke="#000" fill="#e87f00"/>
  <rect id="svg_52" height="1" width="6" y="1" x="87" stroke-width="0" stroke="#000" fill="#e87f00"/>
  <rect id="svg_53" height="5" width="2" y="9" x="94" stroke-width="0" stroke="#000" fill="#e87f00"/>
  <rect id="svg_54" height="5" width="1" y="3" x="97" stroke-width="0" stroke="#000" fill="#e87f00"/>
  <rect id="svg_55" height="1" width="4" y="4" x="103" stroke-width="0" stroke="#000" fill="#e87f00"/>
  <rect id="svg_56" height="4" width="1" y="10" x="107" stroke-width="0" stroke="#000" fill="#e87f00"/>
  <rect id="svg_57" height="1" width="5" y="2" x="53" stroke-width="0" stroke="#000" fill="#e87f00"/>
  <rect id="svg_58" height="1" width="3" y="8" x="63" stroke-width="0" stroke="#000" fill="#e87f00"/>
  <rect id="svg_59" height="1" width="4" y="12" x="72" stroke-width="0" stroke="#000" fill="#e87f00"/>
  <rect id="svg_60" height="4" width="1" y="5" x="74" stroke-width="0" stroke="#000" fill="#e87f00"/>
  <rect id="svg_61" height="1" width="5" y="3" x="84" stroke-width="0" stroke="#000" fill="#e87f00"/>
  <rect id="svg_62" height="4" width="1" y="7" x="90" stroke-width="0" stroke="#000" fill="#e87f00"/>
  <rect id="svg_63" height="1" width="5" y="1" x="100" stroke-width="0" stroke="#000" fill="#e87f00"/>
  <rect id="svg_64" height="2" width="2" y="6.41213" x="101.18829" stroke-width="0" stroke="#000" fill="#e87f00"/>
  <rect id="svg_65" height="2" width="1" y="11" x="98" stroke-width="0" stroke="#000" fill="#e87f00"/>
  <rect id="svg_66" height="5" width="1" y="2" x="111" stroke-width="0" stroke="#000" fill="#e87f00"/>
  <rect id="svg_67" height="4" width="1" y="5" x="119" stroke-width="0" stroke="#000" fill="#e87f00"/>
  <rect id="svg_68" height="3" width="1" y="7" x="121" stroke-width="0" stroke="#000" fill="#e87f00"/>
  <rect id="svg_69" height="1" width="5" y="11" x="121" stroke-width="0" stroke="#000" fill="#e87f00"/>
  <rect id="svg_70" height="2" width="2" y="1" x="70" stroke-width="0" stroke="#000" fill="#e87f00"/>
  <rect id="svg_71" height="1" width="1" y="2" x="139" stroke-width="0" stroke="#000" fill="#e87f00"/>
  <rect id="svg_72" height="1" width="1" y="4" x="139" stroke-width="0" stroke="#000" fill="#e87f00"/>
  <rect id="svg_73" height="1" width="7" y="9" x="137" stroke-width="0" stroke="#000" fill="#e87f00"/>
  <rect id="svg_74" height="1" width="8" y="7" x="139" stroke-width="0" stroke="#000" fill="#e87f00"/>
  <rect id="svg_75" height="3" width="7" y="2" x="129" stroke-width="0" stroke="#000" fill="#e87f00"/>
  <rect id="svg_76" height="4" width="1" y="10" x="128" stroke-width="0" stroke="#000" fill="#e87f00"/>
  <rect id="svg_77" height="6" width="1" y="7" x="133" stroke-width="0" stroke="#000" fill="#e87f00"/>
  <rect id="svg_78" height="2" width="3" y="1" x="146" stroke-width="0" stroke="#000" fill="#e87f00"/>
  <rect id="svg_79" height="3" width="1" y="11" x="140" stroke-width="0" stroke="#000" fill="#e87f00"/>
  <rect id="svg_80" height="1" width="6" y="7" x="125" stroke-width="0" stroke="#000" fill="#e87f00"/>
 </g>

</svg>